<?xml version="1.0" encoding="utf-8"?>
<!-- Generator: Adobe Illustrator 25.0.0, SVG Export Plug-In . SVG Version: 6.00 Build 0)  -->
<svg version="1.2" baseProfile="tiny" id="_x2018_лой_x5F_1"
	 xmlns="http://www.w3.org/2000/svg" xmlns:xlink="http://www.w3.org/1999/xlink" x="0px" y="0px" viewBox="0 0 3000 2000"
	 overflow="visible" xml:space="preserve">
<path fill="#EBF3FA" d="M2332.5,1835.6c-114.9,0-1668.5-3.4-1668.5-3.6c-0.6-1.5-197.2-249.3,50.3-508.3
	c122.7-128.3-112.6-294.6,0-437.3c192.9-244.5,383.8-106.8,542.9-175.6c28.1-12.1,56.3-31.7,84.5-61.7
	c15.9-16.9,33.3-31.6,51.9-44.3c2.9-2,5.7-3.9,8.7-5.7c11.2-7.1,22.7-13.6,34.7-19.3c8-3.9,16.2-7.5,24.5-10.8l0,0
	c13.2-5.2,26.7-9.8,40.6-13.6c19.6-5.4,39.9-9.5,60.5-12.2c9-1.2,18.1-2.1,27.2-2.9c177.7-13.7,377.7,63.5,480.9,176.4
	c20.8,22.7,115.3,140.4,40.8,302.1c-47,102.1,150,199.6,220,316.2C2509.3,1631.5,2334.1,1831.8,2332.5,1835.6z"/>
<g>
	<path fill="#D7E5FF" d="M1998.7,1004.7c-5.3,14.5-11.8,28.3-19.3,41.2c-18,31-42,57.1-69.9,77.3c-64.8,47-150.5,62.1-230.9,32.9
		c-95.5-34.7-156.7-122.4-162.9-218.6c-0.8-12.7-0.7-25.5,0.4-38.4c1.9-21.6,6.6-43.3,14.4-64.7c6.3-17.3,14.2-33.5,23.6-48.4
		c0.1-0.2,0.2-0.3,0.3-0.5c26-41.3,62.9-73.2,105.3-93.3c12-5.7,24.5-10.4,37.3-14.2c6.1-1.8,12.3-3.3,18.5-4.6
		c43.7-9.2,90.2-6.7,135.1,9.6c6,2.2,11.8,4.5,17.4,7.1c8,3.6,15.8,7.6,23.2,12c31.3,18.4,57.5,43,77.6,71.8l0,0
		c12.5,17.9,22.6,37.4,30.1,57.9c3.9,10.8,7.1,21.9,9.5,33.1c1.5,7,2.7,14.1,3.6,21.3c2.2,17.2,2.6,34.8,1.1,52.5
		C2011.4,960.8,2006.6,982.9,1998.7,1004.7z"/>
	<g>
		<path fill="#AEC3FF" d="M1723.6,784.8c-14.8,11.6-11,42.3-36.4,25.1c-25.4-17.3-41.4-26.6-48.7-11.5c-7.3,15.2,15.3,23.4,9.3,39.9
			s-18.1,18.3-30.8,4.8c-12.7-13.5-13-26.5-33.7-26s-29.5-8-28.4-23.7c0.2-2.8-0.1-5.1-0.7-7.3c0.1-0.2,0.2-0.3,0.3-0.5
			c26-41.3,62.9-73.2,105.3-93.3c12-5.7,24.5-10.4,37.3-14.2c6.1-1.8,12.3-3.3,18.5-4.6c7.2,2.9,14.9,8.9,19,20.9
			c8.9,26.4,23.5,20.1,11.1,42.3c-12.5,22.2-7.4,27.6,6.1,31.6s29.1,9.7,26.9,20.5C1776.4,799.5,1738.4,773.2,1723.6,784.8z"/>
		<path fill="#AEC3FF" d="M1998.7,1004.7c-5.3,14.5-11.8,28.3-19.3,41.2c-18,31-42,57.1-69.9,77.3c-6.9-0.2-13.2-2.5-18.5-7.3
			c-24.9-22.4,8.3-46.4,25.7-58.1c17.5-11.7-14.9-15.4-31.1-38s22.1-53.4-2.5-55c-24.5-1.6-54.4-3.1-59.3-29.6s20.9-21.1,16.5-43.4
			s16.9-26.6,39.8-20.3c22.8,6.3,25.7-10.7,54-3.1c28.3,7.6,14.8,42.8,46.1,51.5c31.2,8.7,27.3,15.3,27.3,15.3
			c2.2,0.7,4.2,2,5.9,3.6C2011.4,960.8,2006.6,982.9,1998.7,1004.7z"/>
		<path fill="#AEC3FF" d="M2012.1,886.3c-29.8,3.2-27.6-34.2-52.9-31.9c-25.5,2.3-14.5-16-27.1-34.8s-55.1-8.4-46.4-27.6
			c8.7-19.1,32.4-4.3,43.6-18s34.6-0.8,34.6-0.8c1.6,0,3.3,0.2,4.9,0.6l0,0c12.5,17.9,22.6,37.4,30.1,57.9
			c3.9,10.8,7.1,21.9,9.5,33.1C2010,872,2011.2,879.1,2012.1,886.3z"/>
		<path fill="#AEC3FF" d="M1824.1,741.2c0,0,20.2-14.5,1.3-27.8c-18.9-13.3-21.3-5.7-37-13.4s-26.8,2.7-19.6,21.2
			c7.2,18.4,7.4,48.8,23.7,38.6C1808.7,749.4,1810.5,737.8,1824.1,741.2z"/>
	</g>
</g>
<path fill="#D55B5F" d="M1637.6,491.3c34.5-40.5,87.7-121.9,123.6-163.6c7.4-8.6,1.2-21.8-10.1-21.8h-65.2l61.5-139.1
	c2.6-5.9-5.5-10.7-9.4-5.5l-148.7,199c-4.3,5.8,0.4,14,7.6,13.1l73.8-9.1L1626.8,485C1624.4,491.7,1633,496.7,1637.6,491.3z"/>
<path fill="#AEC3FF" d="M1221.5,741.7c7.8-39.8,12.7-113.8,20.9-154.9c1.7-8.5-7.3-15-14.8-10.7l-43.3,24.4l-11.2-115.4
	c-0.5-4.9-7.6-5-8.3-0.1l-24.3,187.8c-0.7,5.5,5.5,9.1,9.9,5.9l45.6-33.6l16,96.5C1212.9,746.8,1220.5,747,1221.5,741.7z"/>
<g>
	<path fill="#FFFFFF" d="M1925.4,1282.8l-741.9,62.5c-56.3,4.7-97.1-52.7-74-104.3l314.3-703.5c23.8-53.4,97.1-59.5,129.6-10.9
		l427.6,640.9C2012.3,1214.6,1981.7,1278.1,1925.4,1282.8z"/>
	<g>
		<path fill="#D55B5F" d="M1927.7,1310.9l-741.9,62.5c-36.5,3.1-70.9-12.9-92.1-42.8s-24.9-67.6-10-101.1L1398,526.1
			c15.4-34.6,47.2-57.1,84.9-60.3c37.7-3.2,72.8,13.7,93.8,45.2l427.6,640.9c20.3,30.5,23,68.3,7.1,101.3
			C1995.5,1286.3,1964.2,1307.8,1927.7,1310.9z M1487.7,521.9c-17,1.4-31.3,11.6-38.2,27.1l-314.3,703.5c-6.7,15-5,32.1,4.5,45.5
			s25,20.6,41.5,19.3l741.9-62.5c16.4-1.4,30.5-11.1,37.7-25.9s6-31.9-3.2-45.6L1530,542.4C1520.4,528.1,1504.6,520.5,1487.7,521.9z
			"/>
	</g>
	<g>
		<g>
			<path fill="#D55B5F" d="M1470.3,1175.2c-0.8-9.6,0.2-18.5,2.9-26.9c2.7-8.4,7-15.8,12.7-22.3s12.8-11.7,21.3-15.8
				c8.5-4.1,18.2-6.6,29.2-7.5s21.1-0.1,30.3,2.5c9.2,2.6,17.1,6.6,23.9,12c6.7,5.4,12.1,12,16.2,19.9c4.1,7.8,6.5,16.5,7.4,26.1
				c0.8,9.6-0.2,18.5-2.9,26.7c-2.7,8.3-7,15.6-12.7,22.1s-12.9,11.7-21.5,15.8c-8.6,4.1-18.4,6.6-29.4,7.5s-21,0.1-30-2.5
				s-16.9-6.6-23.7-12c-6.7-5.4-12.1-12-16.2-19.6C1473.5,1193.4,1471.1,1184.8,1470.3,1175.2z M1585,1041l-106.9,9l-45.9-363.9
				l137.1-11.6L1585,1041z"/>
		</g>
	</g>
</g>
<g>
	<g>
		<path fill="#003C87" d="M1010.6,1427.5c0,0-10.2,42.5-8.5,86c1.5,38.9-3.4,294.7-3.4,294.7h33.3c0,0,47.5-200.3,49.2-216.2
			c1.8-15.8,25.7-174,25.7-174L1010.6,1427.5z"/>
		<path fill="#004FA3" d="M1032.8,1415.8c0,0,7.7,54.7,20.7,93.5s77.2,298.9,77.2,298.9h33.3c0,0-6.1-200.3-8.4-216.2
			c-2.3-15.8-19.2-174-19.2-174L1032.8,1415.8z"/>
		<path fill="#003C87" d="M1133.4,1808.1v21.8h63.5c3.6,0,5-4.4,2-6.3c-9.3-5.8-24.2-13.8-38-15.6L1133.4,1808.1L1133.4,1808.1z"/>
		<path fill="#003C87" d="M1000.3,1808.1v21.8h63.5c3.6,0,5-4.4,2-6.3c-9.3-5.8-24.2-13.8-38-15.6L1000.3,1808.1L1000.3,1808.1z"/>
		<g>
			<path fill="#003C87" d="M1121.6,1132.3L1121.6,1132.3c0-0.1-0.1-0.1-0.1-0.2c-0.2-0.3-0.5-0.6-0.8-0.9c-0.4-0.3-0.7-0.7-1.2-1
				c-0.3-0.2-0.7-0.5-1.1-0.7c-0.6-0.3-1.2-0.6-1.8-0.8c-0.4-0.1-0.7-0.3-1.1-0.4c-1.1-0.3-2.4-0.6-3.8-0.8c-19.2-2.3-27.2,3-27.2,3
				s-22.2-2.3-34.3,7.6c-8.3,6.7-38.8,59.1,10.5,78c1.5,0.6,2.9,1.1,4.3,1.5c0.5,0.1,0.9,0.3,1.3,0.4c0.9,0.3,1.8,0.6,2.7,0.8
				c0.5,0.1,1,0.2,1.5,0.4c0.7,0.2,1.5,0.4,2.2,0.5c0.5,0.1,1,0.2,1.5,0.2c0.7,0.1,1.3,0.2,1.9,0.3c0.5,0.1,0.9,0.1,1.4,0.1
				c0.6,0,1.2,0.1,1.7,0.1s0.9,0,1.3,0c0.5,0,1,0,1.5,0c0.4,0,0.8-0.1,1.2-0.1c0.5,0,0.9-0.1,1.4-0.2c0.4-0.1,0.8-0.1,1.1-0.2
				c0.4-0.1,0.8-0.2,1.2-0.3c0.4-0.1,0.7-0.2,1-0.3c0.4-0.1,0.7-0.3,1.1-0.4c0.3-0.1,0.6-0.3,0.9-0.4c0.3-0.2,0.6-0.3,0.9-0.5
				s0.6-0.3,0.8-0.5c0.3-0.2,0.6-0.4,0.8-0.6c0.3-0.2,0.5-0.4,0.8-0.6c0.2-0.2,0.5-0.4,0.7-0.7c0.2-0.2,0.5-0.4,0.7-0.7
				c0.2-0.2,0.4-0.5,0.6-0.7c0.2-0.3,0.4-0.5,0.6-0.8c0.2-0.2,0.3-0.5,0.5-0.7c0.2-0.3,0.4-0.6,0.5-0.9c0.1-0.2,0.2-0.5,0.4-0.7
				c5.3-10,2.1-24.6,2.1-24.6l15.4-25C1114.9,1161.6,1128.7,1141.8,1121.6,1132.3z"/>
			<path fill="#F3BFA0" d="M1084.1,1176.8c0,0-6.5-6.1-11.3,0c-4.9,6.1-1.6,19.7,6.5,20.5c0,0-2.4,19.7-18.6,18.9v15.9h38V1220
				c0,0,23.5-9.1,22.6-27.3c-0.8-18.2-6.5-31.1-6.5-31.1S1101.9,1175.2,1084.1,1176.8z"/>
			<path fill="#E5A384" d="M1090,1225c3.8,1.5,3.1,3.7,3.3,7h5.5v-12.1c0,0-9.2,2.7-22.7-4.5C1076,1215.5,1083.9,1222.6,1090,1225z"
				/>
		</g>
		<path fill="#F3BFA0" d="M1097.7,1147.8c0,0-19.7-7.4-22-1.8c-1.5,3.6,2.3,6.7,7.6,9.9l-4.6,0.7c-1,0.2-1.4,1.4-0.6,2
			c1.3,1,4.9,1.6,12.3,1.9L1097.7,1147.8z"/>
		<g>
			<polygon fill="none" points="980.6,1347.9 1007,1427.6 1006.5,1423.6 1007,1427.6 1015.9,1311.6 			"/>
			<path fill="#71C3EC" d="M1238.4,1194c-37.6-26.1-140.2-46.9-140.2-46.9l-8.5,14.4c0,0,93.1,33.8,87,38.9
				c-3.6,3-49.1,22.5-64.5,29.1c-3.3,1.4-6.9,2.1-10.6,2l-47.2-0.3c0,0-34-3.8-60.8,25c-23.9,25.8-64.6,85.5-64.6,85.5l68.5,94.4
				l7.6,10.4l0.1-0.1l-0.1,0.9c0,0,2.4,0.3,6.8,0.6c22,1.9,92.6,7.1,130-0.3l1-0.2l-1.8-154.9c59.7-44.2,88.1-78.4,98.3-89.1
				C1242.2,1200.6,1241.7,1196.3,1238.4,1194z M1008.5,1405.2l-6.7-13.7l-21.3-43.6l35.3-37.1l-6.3,81.3L1008.5,1405.2z"/>
		</g>
		<polygon fill="#45B0E2" points="1001.8,1391.5 1008.5,1405.2 1005.3,1446.5 1005.2,1446.6 997.6,1436.2 		"/>
		<path fill="#45B0E2" d="M1125.3,1287c-6.3,4.3-4.7,42.6-6.3,66.6c-2.6,40.1-5.2,74.8-3.3,97.2c9.7-0.6,18.7-1.6,26.3-3.1l1-0.2
			l-1.8-154.9c59.7-44.2,88.1-78.4,98.3-89.1c2.7-2.8,2.2-7.2-1.1-9.5C1238.4,1194,1191.3,1242.1,1125.3,1287z"/>
		<path fill="#003C87" d="M1155.6,1592c-1.7-11.4-10.9-97-15.9-143.7l-24,2.5c0,0,35,269.3,37.3,357.4h11.1
			C1164,1808.2,1157.9,1607.8,1155.6,1592z"/>
	</g>
	<g>
		<g>
			<g>
				<path fill="#5087C4" d="M774.4,1732.4c0,0-10.3-9-3.4-43.1c6.9-34.1,24.4-66.9,15.8-103.9c-8.6-37-75.9-130.3-76.1-136.5
					c-0.2-6.2-20.8,108.6,14,153.8c34.8,45.2,39,60.9,37.5,84.7c-1.5,23.8,0.4,42.9,4.2,48.5L774.4,1732.4z"/>
				<path fill="#5E99DB" d="M768.1,1663.8c-4,15.2-6.5,53.4,0,62.5c0.6,0.9,1.5,0.4,2.6-1.2c-2-6.3-3.3-17.4,0.5-35.8
					c6.9-34.1,24.4-66.9,15.8-103.9c-8.6-37-75.9-130.3-76.1-136.5c0,0,10.1,77.8,44.3,131.3
					C779.5,1618.4,772.1,1648.5,768.1,1663.8z"/>
			</g>
			<g>
				<path fill="#5087C4" d="M786.7,1730c0,0-19.8-46.3,13.7-86.3c33.5-40.1,87.1-91.5,88.2-111.9c0,0,13.8,96.7-29.9,124.1
					c-43.6,27.4-74.2,31.8-66.7,73.9L786.7,1730z"/>
				<path fill="#5E99DB" d="M833.8,1636.5c-48.6,33.2-52.6,71.4-45.1,89.1c0.6,1.4,1.7,2.2,3.2,2.7c-6.5-40.7,23.8-45.3,66.9-72.3
					c43.6-27.4,29.9-124.1,29.9-124.1S882.5,1603.3,833.8,1636.5z"/>
			</g>
			<g>
				<path fill="#5087C4" d="M754.2,1731c0,0,6.3-24.5,3-50.9c-3.4-26.4-32.9-41.3-60.4-69.3c-14.2-14.4-18.4-90.4-9.6-97.4
					c0,0-48.6,55.2-41.1,95.7c7.5,40.4,86.9,66.7,94.2,86.3c7.3,19.5,6.7,35.9,6.7,35.9L754.2,1731z"/>
				<g>
					<path fill="#5E99DB" d="M670.7,1535.2c-16.1,40.8,0.4,90.2,53.8,120.9c39.3,22.6,26.8,69.6,26.8,69.6l6.4-18.5
						c0.6-8,0.6-17.3-0.6-26.9c-3.4-26.4-32.9-41.3-60.4-69.3c-13.7-13.9-18.1-85-10.5-96.4C684.1,1517.1,677.8,1524.7,670.7,1535.2
						z"/>
				</g>
			</g>
			<g>
				<path fill="#5087C4" d="M796.9,1728c0,0,11.4-39.6,39.6-45c28.2-5.3,60.6-44.4,62.3-52C898.8,1631,894.1,1704.6,796.9,1728z"/>
				<path fill="#5E99DB" d="M834.9,1696.1c-17.3,8.1-24.5,19-27,28.9c86.5-26.1,90.9-94,90.9-94c-0.3,1.5-1.9,4.3-4.4,7.7
					C885.9,1652.7,865.4,1681.8,834.9,1696.1z"/>
			</g>
		</g>
		<path fill="#A6DCFA" d="M857.9,1713.4H710.4l17.5,103.2c1.3,7.8,8.5,13.6,17,13.6h78.5c8.5,0,15.7-5.8,17-13.6L857.9,1713.4z"/>
		<path fill="#45B0E2" d="M822.2,1713.4H710.4l2.9,17.1h106l-14.6,86.1c-1.3,7.8-8.5,13.6-17,13.6h35.7c8.5,0,15.7-5.8,17-13.6
			l17.5-103.2H822.2z"/>
	</g>
	<g>
		<rect x="1248.4" y="1529.4" fill="#D55B5F" width="666.5" height="127"/>
		<polygon fill="#E68342" points="1306.4,1529.4 1367.2,1529.4 1350.9,1560.2 1290,1560.2 		"/>
		<polygon fill="#E68342" points="1443.4,1529.4 1504.3,1529.4 1488,1560.2 1427.1,1560.2 		"/>
		<polygon fill="#E68342" points="1580.5,1529.4 1641.3,1529.4 1625,1560.2 1564.2,1560.2 		"/>
		<polygon fill="#E68342" points="1717.5,1529.4 1778.3,1529.4 1762,1560.2 1701.2,1560.2 		"/>
		<polygon fill="#E68342" points="1914.9,1529.4 1914.9,1530.2 1899.1,1560.2 1838.3,1560.2 1854.6,1529.4 		"/>
		<rect x="1331.4" y="1656.3" fill="#A6DCFA" width="47" height="173.6"/>
		<rect x="1788.6" y="1656.3" fill="#A6DCFA" width="47" height="173.6"/>
		<rect x="1331.4" y="1509.5" fill="#A6DCFA" width="47" height="19.7"/>
		<rect x="1788.6" y="1509.5" fill="#A6DCFA" width="47" height="19.7"/>
		<g>
			<polygon fill="#45B0E2" points="1331.4,1678.1 1367.7,1678.1 1367.7,1829.9 1378.4,1829.9 1378.4,1678.1 1378.4,1656.3 
				1378.4,1656.2 1331.4,1656.2 			"/>
			<polygon fill="#45B0E2" points="1788.6,1678.1 1821.7,1678.1 1821.7,1829.9 1835.6,1829.9 1835.6,1678.1 1835.6,1656.3 
				1835.6,1656.2 1788.6,1656.2 			"/>
			<polygon fill="#45B0E2" points="1367.7,1526.8 1331.4,1526.8 1331.4,1529.2 1378.4,1529.2 1378.4,1529.2 1378.4,1526.8 
				1378.4,1509.5 1367.7,1509.5 			"/>
			<polygon fill="#45B0E2" points="1821.7,1509.5 1821.7,1526.8 1788.6,1526.8 1788.6,1529.2 1835.6,1529.2 1835.6,1529.2 
				1835.6,1526.8 1835.6,1509.5 			"/>
		</g>
		<g>
			<g>
				<polygon fill="#FFFFFF" points="1367.2,1529.4 1300,1656.3 1248.4,1656.3 1248.4,1638.8 1306.4,1529.4 				"/>
				<polygon fill="#FFFFFF" points="1443.4,1529.4 1376.2,1656.3 1437,1656.3 1504.3,1529.4 				"/>
				<polygon fill="#FFFFFF" points="1641.3,1529.4 1574.1,1656.3 1513.3,1656.3 1580.5,1529.4 				"/>
				<polygon fill="#FFFFFF" points="1778.3,1529.4 1711.2,1656.3 1650.3,1656.3 1717.5,1529.4 				"/>
				<polygon fill="#FFFFFF" points="1854.6,1529.4 1787.4,1656.3 1848.2,1656.3 1914.9,1530.2 				"/>
			</g>
		</g>
		<ellipse fill="#D55B5F" cx="1353.7" cy="1482" rx="41.9" ry="39.2"/>
		<path fill="#FFFFFF" d="M1372.6,1482c0-9.8-8.5-17.8-19-17.8s-19,8-19,17.8s8.5,17.8,19,17.8S1372.6,1491.8,1372.6,1482z"/>
		<ellipse fill="#D55B5F" cx="1811.9" cy="1482" rx="41.9" ry="39.2"/>
		<path fill="#FFFFFF" d="M1830.8,1482c0-9.8-8.5-17.8-19-17.8s-19,8-19,17.8s8.5,17.8,19,17.8S1830.8,1491.8,1830.8,1482z"/>
	</g>
	<g>
		<path fill="#D55B5F" d="M2167.5,1816.5h-212.3l32.5-73.7l0,0l13.1-29.8l3.6-8.2l5.9-13.3l1.2-2.7l13.1-29.8l2.4-5.4l23.1-52.6
			c4.2-9.5,18.5-9.5,22.7,0l23.1,52.6l2.4,5.4l13.1,29.8l1.2,2.7l5.9,13.3l3.6,8.2l13.1,29.8l0,0L2167.5,1816.5z"/>
		<polyline fill="#A24548" points="1969.1,1784.9 1955.2,1816.5 2167.5,1816.5 2153.6,1784.9 		"/>
		<rect x="1938.2" y="1797.6" fill="#A6DCFA" width="243.1" height="32.2"/>
		<rect x="2128.8" y="1797.6" fill="#45B0E2" width="52.5" height="32.2"/>
		<g>
			<g>
				<polygon fill="#FFFFFF" points="2111.3,1688.8 2011.4,1688.8 2024.4,1659 2098.2,1659 				"/>
				<polygon fill="#FFFFFF" points="2135,1742.7 2135,1742.7 1987.6,1742.7 1987.6,1742.7 2000.7,1712.9 2121.9,1712.9 				"/>
				<polygon fill="#E3F4FD" points="2111.3,1688.8 2081.2,1688.8 2068.2,1659 2098.2,1659 				"/>
				<polygon fill="#E3F4FD" points="2135,1742.7 2135,1742.7 2105,1742.7 2105,1742.7 2091.9,1712.9 2121.9,1712.9 				"/>
			</g>
		</g>
	</g>
</g>
</svg>
