<svg xmlns="http://www.w3.org/2000/svg" width="25.272" height="14.655" viewBox="0 0 25.272 14.655">
  <g id="eye" transform="translate(0 -98.725)">
    <path id="Path_33" data-name="Path 33" d="M12.636,98.725c-4.828,0-9.207,2.57-12.438,6.744a.952.952,0,0,0,0,1.162c3.231,4.179,7.61,6.749,12.438,6.749s9.207-2.57,12.438-6.744a.952.952,0,0,0,0-1.162C21.843,101.295,17.464,98.725,12.636,98.725Zm.346,12.488a5.174,5.174,0,1,1,4.958-4.823A5.248,5.248,0,0,1,12.982,111.213Zm-.16-2.384a2.786,2.786,0,1,1,2.673-2.6A2.819,2.819,0,0,1,12.822,108.829Z" transform="translate(0)" fill="#9ba1b1"/>
  </g>
</svg>
