<?xml version="1.0" encoding="utf-8"?>
<!-- Generator: Adobe Illustrator 25.0.0, SVG Export Plug-In . SVG Version: 6.00 Build 0)  -->
<svg version="1.2" baseProfile="tiny" id="Layer_1" xmlns="http://www.w3.org/2000/svg" xmlns:xlink="http://www.w3.org/1999/xlink"
	 x="0px" y="0px" viewBox="0 0 48.1 67.2" overflow="visible" xml:space="preserve">
<g>
	<g>
		<path fill="#823B39" d="M35.2,16C34,22.1,28,26,21.9,24.8s-10-7.1-8.8-13.2s7.2-10,13.2-8.8S36.4,9.9,35.2,16z"/>
		<path fill="#FF652F" d="M33.1,26.1c-1,4.9-5.8,8.1-10.7,7.1s-8.1-5.8-7.1-10.7S21,14.4,26,15.4C30.9,16.4,34.1,21.2,33.1,26.1z"/>
	</g>
	<g>
		<g>
			<g>
				<path fill="#FFAD65" d="M40.7,46.7c0,0,3.1-2.4,5.4,0.5c3.5,4.4-2.6,12.3-7.9,8.2L40.7,46.7z"/>
				
					<path fill="none" stroke="#000000" stroke-width="0.5074" stroke-linecap="round" stroke-linejoin="round" stroke-miterlimit="10" d="
					M43.9,49.7c0,0-1.7-0.5-3.6,3.1"/>
			</g>
		</g>
	</g>
	<g>
		<g>
			<g>
				<path fill="#FFAD65" d="M7.7,47c0,0-3.6-2.7-5.9,0.2c-3.5,4.4,2.6,12.3,7.9,8.2L7.7,47z"/>
				
					<path fill="none" stroke="#000000" stroke-width="0.5074" stroke-linecap="round" stroke-linejoin="round" stroke-miterlimit="10" d="
					M4.1,49.7c0,0,1.7-0.5,3.6,3.1"/>
			</g>
		</g>
	</g>
	<ellipse fill="#823B39" cx="24.1" cy="38" rx="20" ry="20"/>
	<path fill="#FFAD65" d="M7.2,37c0,0-2.1,30,16.2,30c19.8,0,17.7-30,17.7-30S41,23.5,24,23.5C8.4,23.5,7.2,37,7.2,37z"/>
	<g>
		
			<polyline fill="none" stroke="#000000" stroke-width="0.5074" stroke-linecap="round" stroke-linejoin="round" stroke-miterlimit="10" points="
			22.5,50.4 22.5,52.8 23.7,52.8 		"/>
		<path d="M27.1,39.9c0,0-0.5,1.6,2.1,1.7c1.9,0,4.3,0.5,5.4,0.8c0.6,0.1,1.3-0.1,1.6-0.6l0,0c0.2-0.4,0.2-0.8-0.2-1.1
			c-0.7-0.6-3.2-2.1-5.6-2.1C27.5,38.4,27.1,39.9,27.1,39.9z"/>
		<path d="M19.4,39.9c0,0,0.5,1.6-2.1,1.7c-1.9,0-4.3,0.5-5.4,0.8c-0.6,0.1-1.3-0.1-1.6-0.6l0,0C10,41.4,10,41,10.4,40.6
			c0.7-0.6,3.2-2.1,5.6-2.1C19,38.4,19.4,39.9,19.4,39.9z"/>
		<g>
			<path fill="#FFFFFF" d="M18.3,55.7h9.9c0,0-0.8,2.8-5,2.8C19.1,58.5,18.3,55.7,18.3,55.7z"/>
		</g>
		
			<path fill="none" stroke="#000000" stroke-width="0.8957" stroke-linecap="round" stroke-linejoin="round" stroke-miterlimit="10" d="
			M18.3,47.5c0,0-1.5-1.7-3.9,0"/>
		
			<path fill="none" stroke="#000000" stroke-width="0.8957" stroke-linecap="round" stroke-linejoin="round" stroke-miterlimit="10" d="
			M32.1,47.5c0,0-1.5-1.7-3.9,0"/>
	</g>
	<path fill="#823B39" d="M18.9,20.7c0,0,5.7,17.1,22.1,16.1C41,36.8,44.5,15,18.9,20.7z"/>
	<path fill="#823B39" d="M28,20.7c0,0-5.7,17.1-22.1,16.1C5.9,36.8,6.9,14.2,28,20.7z"/>
</g>
</svg>
