<?xml version="1.0" encoding="utf-8"?>
<!-- Generator: Adobe Illustrator 25.0.0, SVG Export Plug-In . SVG Version: 6.00 Build 0)  -->
<svg version="1.1" id="Layer_1" xmlns="http://www.w3.org/2000/svg" xmlns:xlink="http://www.w3.org/1999/xlink" x="0px" y="0px"
	 viewBox="0 0 95.88 342.3" style="enable-background:new 0 0 95.88 342.3;" xml:space="preserve">
<style type="text/css">
	.st0{fill:#FFAD65;}
	.st1{fill:#FFFFFF;}
	.st2{fill:#3F2952;}
	.st3{fill:none;stroke:#1D0300;stroke-width:0.6808;stroke-linecap:round;stroke-linejoin:round;stroke-miterlimit:10;}
	.st4{fill:#3C3CAE;}
	.st5{fill:#1D0300;}
	.st6{fill:#823B39;}
	.st7{fill:#FF652F;}
	.st8{fill:none;stroke:#000000;stroke-width:0.5074;stroke-linecap:round;stroke-linejoin:round;stroke-miterlimit:10;}
	.st9{fill:none;stroke:#000000;stroke-width:0.8957;stroke-linecap:round;stroke-linejoin:round;stroke-miterlimit:10;}
</style>
<g>
	<g>
		<g>
			<g>
				<polygon class="st0" points="57.18,331.41 55.78,291.64 69.46,293.51 68.56,328.81 				"/>
				<g>
					<g>
						<g>
							<g>
								<defs>
									<path id="XMLID_57_" d="M55.87,324.73c0,0,9.45,5.13,13.52-2.32l26.48,15.83l-44.22-0.28L55.87,324.73z"/>
								</defs>
								<use xlink:href="#XMLID_57_"  style="overflow:visible;fill:#070707;"/>
								<clipPath id="XMLID_2_">
									<use xlink:href="#XMLID_57_"  style="overflow:visible;"/>
								</clipPath>
							</g>
							
								<rect x="71.72" y="318.02" transform="matrix(6.424083e-03 -1 1 6.424083e-03 -266.8441 411.6933)" class="st1" width="4.06" height="44.22"/>
							<path class="st1" d="M71.81,330.15c0.12-0.05,0.24-0.13,0.32-0.24c1.8-2.37,3.62-3.53,3.64-3.54
								c0.36-0.23,0.45-0.69,0.21-1.03c-0.24-0.34-0.73-0.42-1.08-0.21c-0.08,0.05-2.05,1.31-4.03,3.91
								c-0.25,0.33-0.18,0.8,0.17,1.04C71.28,330.23,71.57,330.25,71.81,330.15z"/>
							<path class="st1" d="M75.61,332.05c0.12-0.05,0.24-0.13,0.32-0.25c1.8-2.37,3.62-3.53,3.64-3.54
								c0.36-0.23,0.45-0.69,0.21-1.03c-0.24-0.34-0.73-0.43-1.08-0.21c-0.08,0.05-2.05,1.31-4.03,3.91
								c-0.25,0.33-0.18,0.8,0.17,1.04C75.07,332.13,75.37,332.15,75.61,332.05z"/>
							<path class="st1" d="M79.41,333.95c0.12-0.05,0.24-0.13,0.32-0.25c1.81-2.36,3.62-3.53,3.64-3.54
								c0.36-0.23,0.45-0.69,0.21-1.03c-0.24-0.34-0.73-0.43-1.08-0.21c-0.08,0.05-2.05,1.31-4.03,3.91
								c-0.25,0.33-0.18,0.8,0.17,1.04C78.87,334.03,79.16,334.05,79.41,333.95z"/>
						</g>
					</g>
				</g>
			</g>
			<path class="st2" d="M65.43,144.41l8.27,18.49c2.54,5.67,3.76,11.84,3.58,18.05l-4.96,129.24H53.92l-7.55-165.78H65.43z"/>
		</g>
		<g>
			<g>
				<polygon class="st0" points="38.69,331.41 40.1,291.64 26.42,293.51 27.32,328.81 				"/>
				<g>
					<g>
						<g>
							<g>
								<defs>
									<path id="XMLID_56_" d="M40,324.73c0,0-9.45,5.13-13.52-2.32L0,338.24l44.22-0.28L40,324.73z"/>
								</defs>
								<use xlink:href="#XMLID_56_"  style="overflow:visible;fill:#070707;"/>
								<clipPath id="XMLID_3_">
									<use xlink:href="#XMLID_56_"  style="overflow:visible;"/>
								</clipPath>
							</g>
							
								<rect x="0.01" y="338.1" transform="matrix(1 -6.424068e-03 6.424068e-03 1 -2.1846 0.1492)" class="st1" width="44.22" height="4.06"/>
							<path class="st1" d="M24.06,330.15c-0.12-0.05-0.24-0.13-0.32-0.24c-1.81-2.37-3.62-3.53-3.64-3.54
								c-0.36-0.23-0.45-0.69-0.21-1.03c0.24-0.34,0.73-0.42,1.08-0.21c0.08,0.05,2.05,1.31,4.03,3.91c0.25,0.33,0.18,0.8-0.17,1.04
								C24.6,330.23,24.31,330.25,24.06,330.15z"/>
							<path class="st1" d="M20.27,332.05c-0.12-0.05-0.24-0.13-0.32-0.25c-1.8-2.37-3.62-3.53-3.64-3.54
								c-0.36-0.23-0.45-0.69-0.21-1.03c0.24-0.34,0.73-0.43,1.08-0.21c0.08,0.05,2.05,1.31,4.03,3.91c0.25,0.33,0.18,0.8-0.17,1.04
								C20.8,332.13,20.51,332.15,20.27,332.05z"/>
							<path class="st1" d="M16.47,333.95c-0.12-0.05-0.24-0.13-0.32-0.25c-1.81-2.36-3.62-3.53-3.64-3.54
								c-0.36-0.23-0.45-0.69-0.21-1.03c0.24-0.34,0.73-0.43,1.08-0.21c0.08,0.05,2.05,1.31,4.03,3.91c0.25,0.33,0.18,0.8-0.17,1.04
								C17.01,334.03,16.72,334.05,16.47,333.95z"/>
						</g>
					</g>
				</g>
			</g>
			<g>
				<path class="st2" d="M30.58,144.41l-8.27,18.49c-2.54,5.67-3.76,11.84-3.58,18.05l4.96,129.24H42.1l7.54-165.78H30.58z"/>
				<line class="st3" x1="39.15" y1="191" x2="56.03" y2="189.45"/>
			</g>
		</g>
	</g>
	<g>
		<g>
			<path class="st4" d="M73.83,85.42c0,0,9.71,0.11,11.19,14.68c1.48,14.57,2.55,35.94,2.55,35.94l-12.76,1.09l-5.75-37.06
				L73.83,85.42z"/>
			<g>
				<g>
					<polygon class="st0" points="87.57,136.05 91.43,205.82 85.66,206.5 74.81,137.14 					"/>
				</g>
				<g>
					<path class="st0" d="M86,202.2c0,0-3.3,4.87-1.51,11.24l-1.61,6.13c-0.25,0.95,0.19,1.97,1.03,2.38l0,0
						c0.91,0.45,1.97,0.04,2.4-0.93l1.53-3.45l0.12,1.34c0.19,2.12-0.3,4.24-1.37,6.02l-3.05,6.04c-0.35,0.57-0.37,1.31-0.07,1.92
						l0,0c0.58,1.18,2.08,1.37,2.88,0.37l4.78-7.05c1.85-2.34,2.67-5.45,2.24-8.53l-2.31-16.53L86,202.2z"/>
				</g>
			</g>
		</g>
		<g>
			<path class="st4" d="M21.73,85.42c0,0-9.71,0.11-11.19,14.68c-1.48,14.57-2.55,35.94-2.55,35.94l12.76,1.09l5.75-37.06
				L21.73,85.42z"/>
			<g>
				<g>
					<polygon class="st0" points="7.99,136.05 4.13,205.82 9.9,206.5 20.75,137.14 					"/>
				</g>
				<g>
					<path class="st0" d="M9.56,202.2c0,0,3.3,4.87,1.51,11.24l1.61,6.13c0.25,0.95-0.19,1.97-1.03,2.38l0,0
						c-0.91,0.45-1.97,0.04-2.4-0.93l-1.53-3.45l-0.12,1.34c-0.19,2.12,0.3,4.24,1.37,6.02l3.05,6.04c0.35,0.57,0.37,1.31,0.07,1.92
						l0,0c-0.58,1.18-2.08,1.37-2.88,0.37l-4.78-7.05c-1.85-2.34-2.67-5.45-2.24-8.53l2.31-16.53L9.56,202.2z"/>
				</g>
			</g>
		</g>
		<g>
			<path class="st4" d="M75.47,85.64l-27.58-9.97L20.29,85.75c-1.41,0.52-2.16,2.05-1.68,3.48c3.07,9.09,13.16,40.21,12.33,54.48
				h17.08H65.1c-0.83-14.27,9.06-45.49,12.06-54.6C77.63,87.68,76.88,86.15,75.47,85.64z"/>
			<rect x="30.58" y="136.37" class="st5" width="34.8" height="8.03"/>
			<g>
				<path class="st0" d="M24.67,84.15c0,0,4.75,7.88,22.72,7.88s23.46-8.06,23.46-8.06l-22.97-8.3L24.67,84.15z"/>
				<line class="st3" x1="70.55" y1="111.28" x2="73.61" y2="100.17"/>
				<line class="st3" x1="24.4" y1="107.73" x2="22.31" y2="100.81"/>
			</g>
		</g>
	</g>
	<g>
		<g>
			<path class="st6" d="M58.43,13.47c-1.22,6.09-7.15,10.03-13.24,8.81s-10.03-7.15-8.81-13.24C37.6,2.94,43.53-1,49.62,0.22
				C55.71,1.45,59.66,7.38,58.43,13.47z"/>
			<path class="st7" d="M56.35,23.59c-0.99,4.94-5.8,8.14-10.74,7.15c-4.94-0.99-8.14-5.8-7.15-10.74c0.99-4.94,5.8-8.14,10.74-7.15
				C54.15,13.83,57.35,18.65,56.35,23.59z"/>
		</g>
		<g>
			<g>
				<g>
					<path class="st0" d="M63.96,44.18c0,0,3.12-2.42,5.4,0.45c3.46,4.37-2.6,12.29-7.87,8.21L63.96,44.18z"/>
					<path class="st8" d="M67.11,47.12c0,0-1.74-0.55-3.63,3.13"/>
				</g>
			</g>
		</g>
		<g>
			<g>
				<g>
					<path class="st0" d="M30.98,44.46c0,0-3.59-2.71-5.87,0.17c-3.46,4.37,2.6,12.29,7.87,8.21L30.98,44.46z"/>
					<path class="st8" d="M27.35,47.12c0,0,1.74-0.55,3.63,3.13"/>
				</g>
			</g>
		</g>
		
			<ellipse transform="matrix(0.9258 -0.3781 0.3781 0.9258 -9.8996 20.5469)" class="st6" cx="47.38" cy="35.49" rx="20.03" ry="20.03"/>
		<polygon class="st0" points="42.1,61.78 40.74,82.75 54.29,82.75 52.31,61.55 		"/>
		<path d="M41.96,63.19c0.45,0.26,11.27,8.19,11.27,8.19l-0.92-9.84L41.96,63.19z"/>
		<path class="st0" d="M30.48,34.46c0,0-2.1,30.04,16.18,30.04c19.77,0,17.7-30.04,17.7-30.04s-0.11-13.53-17.09-13.53
			C31.7,20.93,30.48,34.46,30.48,34.46z"/>
		<g>
			<polyline class="st8" points="45.7,47.87 45.7,50.21 46.96,50.23 			"/>
			<path d="M50.38,37.32c0,0-0.45,1.64,2.1,1.68c1.94,0.03,4.3,0.53,5.41,0.77c0.63,0.13,1.31-0.11,1.61-0.58l0,0
				c0.24-0.38,0.19-0.82-0.15-1.14c-0.69-0.63-3.23-2.09-5.59-2.14C50.74,35.84,50.38,37.32,50.38,37.32z"/>
			<path d="M42.59,37.36c0,0,0.45,1.64-2.1,1.68c-1.94,0.03-4.3,0.53-5.41,0.77c-0.63,0.13-1.31-0.11-1.61-0.58l0,0
				c-0.24-0.38-0.19-0.82,0.15-1.14c0.69-0.63,3.23-2.09,5.59-2.14C42.23,35.88,42.59,37.36,42.59,37.36z"/>
			<g>
				<path class="st1" d="M41.5,53.16h9.93c0,0-0.81,2.78-4.96,2.78C42.3,55.94,41.5,53.16,41.5,53.16z"/>
			</g>
			<path class="st9" d="M41.5,44.98c0,0-1.52-1.66-3.91,0"/>
			<path class="st9" d="M55.34,44.98c0,0-1.52-1.66-3.91,0"/>
		</g>
		<path class="st6" d="M42.14,18.17c0,0,5.7,17.07,22.1,16.12C64.24,34.29,67.8,12.5,42.14,18.17z"/>
		<path class="st6" d="M51.27,18.17c0,0-5.7,17.07-22.1,16.12C29.17,34.29,30.12,11.67,51.27,18.17z"/>
	</g>
</g>
</svg>
