<?xml version="1.0" encoding="utf-8"?>
<!-- Generator: Adobe Illustrator 25.0.0, SVG Export Plug-In . SVG Version: 6.00 Build 0)  -->
<svg version="1.1" id="Layer_1" xmlns="http://www.w3.org/2000/svg" xmlns:xlink="http://www.w3.org/1999/xlink" x="0px" y="0px"
	 viewBox="0 0 48.06 67.18" style="enable-background:new 0 0 48.06 67.18;" xml:space="preserve">
<style type="text/css">
	.st0{fill:#823B39;}
	.st1{fill:#FF652F;}
	.st2{fill:#FFAD65;}
	.st3{fill:none;stroke:#000000;stroke-width:0.5074;stroke-linecap:round;stroke-linejoin:round;stroke-miterlimit:10;}
	.st4{fill:#FFFFFF;}
	.st5{fill:none;stroke:#000000;stroke-width:0.8957;stroke-linecap:round;stroke-linejoin:round;stroke-miterlimit:10;}
</style>
<g>
	<g>
		<path class="st0" d="M35.19,16.01c-1.22,6.09-7.15,10.03-13.24,8.81s-10.03-7.15-8.81-13.24c1.22-6.09,7.15-10.03,13.24-8.81
			C32.47,3.99,36.41,9.92,35.19,16.01z"/>
		<path class="st1" d="M33.11,26.13c-0.99,4.94-5.8,8.14-10.74,7.15c-4.94-0.99-8.14-5.8-7.15-10.74c0.99-4.94,5.8-8.14,10.74-7.15
			C30.9,16.38,34.1,21.19,33.11,26.13z"/>
	</g>
	<g>
		<g>
			<g>
				<path class="st2" d="M40.71,46.73c0,0,3.12-2.42,5.4,0.45c3.46,4.37-2.6,12.29-7.87,8.21L40.71,46.73z"/>
				<path class="st3" d="M43.87,49.66c0,0-1.74-0.55-3.63,3.13"/>
			</g>
		</g>
	</g>
	<g>
		<g>
			<g>
				<path class="st2" d="M7.74,47.01c0,0-3.59-2.71-5.87,0.17c-3.46,4.37,2.6,12.29,7.87,8.21L7.74,47.01z"/>
				<path class="st3" d="M4.11,49.66c0,0,1.74-0.55,3.63,3.13"/>
			</g>
		</g>
	</g>
	
		<ellipse transform="matrix(0.9258 -0.3781 0.3781 0.9258 -12.5877 11.9476)" class="st0" cx="24.14" cy="38.03" rx="20.03" ry="20.03"/>
	<path class="st2" d="M7.23,37c0,0-2.1,30.04,16.18,30.04C43.18,67.05,41.1,37,41.1,37s-0.11-13.53-17.09-13.53
		C8.45,23.47,7.23,37,7.23,37z"/>
	<g>
		<polyline class="st3" points="22.45,50.42 22.45,52.76 23.72,52.78 		"/>
		<path d="M27.13,39.87c0,0-0.45,1.64,2.1,1.68c1.94,0.03,4.3,0.53,5.41,0.77c0.63,0.13,1.31-0.11,1.61-0.58l0,0
			c0.24-0.38,0.19-0.82-0.15-1.14c-0.69-0.63-3.23-2.09-5.59-2.14C27.5,38.38,27.13,39.87,27.13,39.87z"/>
		<path d="M19.35,39.91c0,0,0.45,1.64-2.1,1.68c-1.94,0.03-4.3,0.53-5.41,0.77c-0.63,0.13-1.31-0.11-1.61-0.58l0,0
			c-0.24-0.38-0.19-0.82,0.15-1.14c0.69-0.63,3.23-2.09,5.59-2.14C18.98,38.42,19.35,39.91,19.35,39.91z"/>
		<g>
			<path class="st4" d="M18.25,55.7h9.93c0,0-0.81,2.78-4.96,2.78C19.06,58.48,18.25,55.7,18.25,55.7z"/>
		</g>
		<path class="st5" d="M18.25,47.52c0,0-1.52-1.65-3.91,0"/>
		<path class="st5" d="M32.09,47.52c0,0-1.52-1.65-3.91,0"/>
	</g>
	<path class="st0" d="M18.89,20.72c0,0,5.7,17.07,22.1,16.12C41,36.84,44.55,15.05,18.89,20.72z"/>
	<path class="st0" d="M28.03,20.72c0,0-5.7,17.07-22.1,16.12C5.92,36.84,6.88,14.21,28.03,20.72z"/>
</g>
</svg>
