<?xml version="1.0" encoding="utf-8"?>
<!-- Generator: Adobe Illustrator 25.0.0, SVG Export Plug-In . SVG Version: 6.00 Build 0)  -->
<svg version="1.2" baseProfile="tiny" id="Layer_1" xmlns="http://www.w3.org/2000/svg" xmlns:xlink="http://www.w3.org/1999/xlink"
	 x="0px" y="0px" viewBox="0 0 95.9 342.3" overflow="visible" xml:space="preserve">
<g>
	<g>
		<g>
			<g>
				<polygon fill="#FFAD65" points="57.2,331.4 55.8,291.6 69.5,293.5 68.6,328.8 				"/>
				<g>
					<g>
						<g>
							<g>
								<g>
									<path id="XMLID_57_" fill="#070707" d="M55.9,324.7c0,0,9.5,5.1,13.5-2.3l26.5,15.8L51.6,338L55.9,324.7z"/>
								</g>
							</g>
							
								<rect x="71.7" y="318" transform="matrix(6.423950e-03 -1 1 6.423950e-03 -266.8354 411.7015)" fill="#FFFFFF" width="4.1" height="44.2"/>
							<path fill="#FFFFFF" d="M71.8,330.1c0.1,0,0.2-0.1,0.3-0.2c1.8-2.4,3.6-3.5,3.6-3.5c0.4-0.2,0.4-0.7,0.2-1s-0.7-0.4-1.1-0.2
								c-0.1,0-2.1,1.3-4,3.9c-0.3,0.3-0.2,0.8,0.2,1C71.3,330.2,71.6,330.3,71.8,330.1z"/>
							<path fill="#FFFFFF" d="M75.6,332c0.1,0,0.2-0.1,0.3-0.3c1.8-2.4,3.6-3.5,3.6-3.5c0.4-0.2,0.4-0.7,0.2-1s-0.7-0.4-1.1-0.2
								c-0.1,0-2.1,1.3-4,3.9c-0.3,0.3-0.2,0.8,0.2,1C75.1,332.1,75.4,332.1,75.6,332z"/>
							<path fill="#FFFFFF" d="M79.4,334c0.1,0,0.2-0.1,0.3-0.3c1.8-2.4,3.6-3.5,3.6-3.5c0.4-0.2,0.4-0.7,0.2-1s-0.7-0.4-1.1-0.2
								c-0.1,0-2.1,1.3-4,3.9c-0.3,0.3-0.2,0.8,0.2,1C78.9,334,79.2,334,79.4,334z"/>
						</g>
					</g>
				</g>
			</g>
			<path fill="#3F2952" d="M65.4,144.4l8.3,18.5c2.5,5.7,3.8,11.8,3.6,18.1l-5,129.2H53.9l-7.5-165.8H65.4z"/>
		</g>
		<g>
			<g>
				<polygon fill="#FFAD65" points="38.7,331.4 40.1,291.6 26.4,293.5 27.3,328.8 				"/>
				<g>
					<g>
						<g>
							<g>
								<g>
									<path id="XMLID_56_" fill="#070707" d="M40,324.7c0,0-9.5,5.1-13.5-2.3L0,338.2l44.2-0.3L40,324.7z"/>
								</g>
							</g>
							
								<rect x="0" y="338.1" transform="matrix(1 -6.423935e-03 6.423935e-03 1 -2.1846 0.1491)" fill="#FFFFFF" width="44.2" height="4.1"/>
							<path fill="#FFFFFF" d="M24.1,330.1c-0.1,0-0.2-0.1-0.3-0.2c-1.8-2.4-3.6-3.5-3.6-3.5c-0.4-0.2-0.5-0.7-0.2-1
								c0.2-0.3,0.7-0.4,1.1-0.2c0.1,0,2,1.3,4,3.9c0.3,0.3,0.2,0.8-0.2,1C24.6,330.2,24.3,330.3,24.1,330.1z"/>
							<path fill="#FFFFFF" d="M20.3,332c-0.1,0-0.2-0.1-0.3-0.3c-1.8-2.4-3.6-3.5-3.6-3.5c-0.4-0.2-0.4-0.7-0.2-1
								c0.2-0.3,0.7-0.4,1.1-0.2c0.1,0,2,1.3,4,3.9c0.3,0.3,0.2,0.8-0.2,1C20.8,332.1,20.5,332.1,20.3,332z"/>
							<path fill="#FFFFFF" d="M16.5,334c-0.1,0-0.2-0.1-0.3-0.3c-1.8-2.4-3.6-3.5-3.6-3.5c-0.4-0.2-0.4-0.7-0.2-1s0.7-0.4,1.1-0.2
								c0.1,0,2.1,1.3,4,3.9c0.3,0.3,0.2,0.8-0.2,1C17,334,16.7,334,16.5,334z"/>
						</g>
					</g>
				</g>
			</g>
			<g>
				<path fill="#3F2952" d="M30.6,144.4l-8.3,18.5c-2.5,5.7-3.8,11.8-3.6,18.1l5,129.2h18.4l7.5-165.8H30.6z"/>
				
					<line fill="none" stroke="#1D0300" stroke-width="0.6808" stroke-linecap="round" stroke-linejoin="round" stroke-miterlimit="10" x1="39.2" y1="191" x2="56" y2="189.4"/>
			</g>
		</g>
	</g>
	<g>
		<g>
			<path fill="#3C3CAE" d="M73.8,85.4c0,0,9.7,0.1,11.2,14.7s2.6,35.9,2.6,35.9l-12.8,1.1l-5.8-37.1L73.8,85.4z"/>
			<g>
				<g>
					<polygon fill="#FFAD65" points="87.6,136.1 91.4,205.8 85.7,206.5 74.8,137.1 					"/>
				</g>
				<g>
					<path fill="#FFAD65" d="M86,202.2c0,0-3.3,4.9-1.5,11.2l-1.6,6.1c-0.3,0.9,0.2,2,1,2.4l0,0c0.9,0.4,2,0,2.4-0.9l1.5-3.4
						l0.1,1.3c0.2,2.1-0.3,4.2-1.4,6l-3.1,6c-0.3,0.6-0.4,1.3-0.1,1.9l0,0c0.6,1.2,2.1,1.4,2.9,0.4l4.8-7.1c1.8-2.3,2.7-5.4,2.2-8.5
						l-2.3-16.5L86,202.2z"/>
				</g>
			</g>
		</g>
		<g>
			<path fill="#3C3CAE" d="M21.7,85.4c0,0-9.7,0.1-11.2,14.7S8,136,8,136l12.8,1.1l5.8-37.1L21.7,85.4z"/>
			<g>
				<g>
					<polygon fill="#FFAD65" points="8,136.1 4.1,205.8 9.9,206.5 20.8,137.1 					"/>
				</g>
				<g>
					<path fill="#FFAD65" d="M9.6,202.2c0,0,3.3,4.9,1.5,11.2l1.6,6.1c0.3,0.9-0.2,2-1,2.4l0,0c-0.9,0.4-2,0-2.4-0.9l-1.5-3.4
						l-0.1,1.3c-0.2,2.1,0.3,4.2,1.4,6l3.1,6c0.4,0.6,0.4,1.3,0.1,1.9l0,0c-0.6,1.2-2.1,1.4-2.9,0.4l-4.8-7.1
						c-1.8-2.3-2.7-5.4-2.2-8.5l2.3-16.5L9.6,202.2z"/>
				</g>
			</g>
		</g>
		<g>
			<path fill="#3C3CAE" d="M75.5,85.6l-27.6-10L20.3,85.7c-1.4,0.5-2.2,2.1-1.7,3.5c3.1,9.1,13.2,40.2,12.3,54.5H48h17.1
				c-0.8-14.3,9.1-45.5,12.1-54.6C77.6,87.7,76.9,86.1,75.5,85.6z"/>
			<rect x="30.6" y="136.4" fill="#1D0300" width="34.8" height="8"/>
			<g>
				<path fill="#FFAD65" d="M24.7,84.1c0,0,4.8,7.9,22.7,7.9S70.8,84,70.8,84l-23-8.3L24.7,84.1z"/>
				
					<line fill="none" stroke="#1D0300" stroke-width="0.6808" stroke-linecap="round" stroke-linejoin="round" stroke-miterlimit="10" x1="70.6" y1="111.3" x2="73.6" y2="100.2"/>
				
					<line fill="none" stroke="#1D0300" stroke-width="0.6808" stroke-linecap="round" stroke-linejoin="round" stroke-miterlimit="10" x1="24.4" y1="107.7" x2="22.3" y2="100.8"/>
			</g>
		</g>
	</g>
	<g>
		<g>
			<path fill="#823B39" d="M58.4,13.5c-1.2,6.1-7.2,10-13.2,8.8s-10-7.1-8.8-13.2c1.2-6.1,7.1-10,13.2-8.8
				C55.7,1.4,59.7,7.4,58.4,13.5z"/>
			<path fill="#FF652F" d="M56.3,23.6c-1,4.9-5.8,8.1-10.7,7.1s-8.1-5.8-7.2-10.7c1-4.9,5.8-8.1,10.7-7.1
				C54.2,13.8,57.3,18.6,56.3,23.6z"/>
		</g>
		<g>
			<g>
				<g>
					<path fill="#FFAD65" d="M64,44.2c0,0,3.1-2.4,5.4,0.5c3.5,4.4-2.6,12.3-7.9,8.2L64,44.2z"/>
					
						<path fill="none" stroke="#000000" stroke-width="0.5074" stroke-linecap="round" stroke-linejoin="round" stroke-miterlimit="10" d="
						M67.1,47.1c0,0-1.7-0.5-3.6,3.1"/>
				</g>
			</g>
		</g>
		<g>
			<g>
				<g>
					<path fill="#FFAD65" d="M31,44.5c0,0-3.6-2.7-5.9,0.2c-3.5,4.4,2.6,12.3,7.9,8.2L31,44.5z"/>
					
						<path fill="none" stroke="#000000" stroke-width="0.5074" stroke-linecap="round" stroke-linejoin="round" stroke-miterlimit="10" d="
						M27.4,47.1c0,0,1.7-0.5,3.6,3.1"/>
				</g>
			</g>
		</g>
		<ellipse fill="#823B39" cx="47.4" cy="35.5" rx="20" ry="20"/>
		<polygon fill="#FFAD65" points="42.1,61.8 40.7,82.7 54.3,82.7 52.3,61.5 		"/>
		<path d="M42,63.2c0.5,0.3,11.3,8.2,11.3,8.2l-0.9-9.8L42,63.2z"/>
		<path fill="#FFAD65" d="M30.5,34.5c0,0-2.1,30,16.2,30c19.8,0,17.7-30,17.7-30s-0.1-13.5-17.1-13.5C31.7,20.9,30.5,34.5,30.5,34.5
			z"/>
		<g>
			
				<polyline fill="none" stroke="#000000" stroke-width="0.5074" stroke-linecap="round" stroke-linejoin="round" stroke-miterlimit="10" points="
				45.7,47.9 45.7,50.2 47,50.2 			"/>
			<path d="M50.4,37.3c0,0-0.5,1.6,2.1,1.7c1.9,0,4.3,0.5,5.4,0.8c0.6,0.1,1.3-0.1,1.6-0.6l0,0c0.2-0.4,0.2-0.8-0.2-1.1
				c-0.7-0.6-3.2-2.1-5.6-2.1C50.7,35.8,50.4,37.3,50.4,37.3z"/>
			<path d="M42.6,37.4c0,0,0.5,1.6-2.1,1.7c-1.9,0-4.3,0.5-5.4,0.8c-0.6,0.1-1.3-0.1-1.6-0.6l0,0c-0.2-0.4-0.2-0.8,0.2-1.1
				c0.7-0.6,3.2-2.1,5.6-2.1C42.2,35.9,42.6,37.4,42.6,37.4z"/>
			<g>
				<path fill="#FFFFFF" d="M41.5,53.2h9.9c0,0-0.8,2.8-5,2.8C42.3,55.9,41.5,53.2,41.5,53.2z"/>
			</g>
			
				<path fill="none" stroke="#000000" stroke-width="0.8957" stroke-linecap="round" stroke-linejoin="round" stroke-miterlimit="10" d="
				M41.5,45c0,0-1.5-1.7-3.9,0"/>
			
				<path fill="none" stroke="#000000" stroke-width="0.8957" stroke-linecap="round" stroke-linejoin="round" stroke-miterlimit="10" d="
				M55.3,45c0,0-1.5-1.7-3.9,0"/>
		</g>
		<path fill="#823B39" d="M42.1,18.2c0,0,5.7,17.1,22.1,16.1C64.2,34.3,67.8,12.5,42.1,18.2z"/>
		<path fill="#823B39" d="M51.3,18.2c0,0-5.7,17.1-22.1,16.1C29.2,34.3,30.1,11.7,51.3,18.2z"/>
	</g>
</g>
</svg>
