<?xml version="1.0" encoding="utf-8"?>
<!-- Generator: Adobe Illustrator 25.0.0, SVG Export Plug-In . SVG Version: 6.00 Build 0)  -->
<svg version="1.1" id="Layer_1" xmlns="http://www.w3.org/2000/svg" xmlns:xlink="http://www.w3.org/1999/xlink" x="0px" y="0px"
	 viewBox="0 0 238 554" style="enable-background:new 0 0 238 554;" xml:space="preserve">
<g>
	<g>
		<g>
			<path class="st0" d="M140.95,19.62c-38-13.16-87.33,7.87-104.56,44.18c-2.31,4.87-11.06,25.06,0.53,24.93
				c2.33-0.02,4.52-1.04,6.63-2.03c-3.68,2.04-6.77,5.18-8.78,8.93c-1.35,2.51-2.18,5.68-0.82,8.18c2.26,4.17,8.27,3.4,12.76,2.06
				c-3.51,2.12-4.62,6.81-4.54,10.97c0.17,9,4.25,17.4,8.56,25.26c5.78,10.52,12.23,20.79,20.6,29.3
				c8.38,8.51,18.86,15.22,30.49,17.45c7.87,1.51,15.99,0.93,23.9-0.34c22.76-3.66,46.01-14.37,57.46-34.74
				c3.14-5.58,5.28-11.68,7.11-17.84c6.41-21.51,9.28-44.1,8.46-66.56c-0.4-10.81-1.85-22.14-8.17-30.83
				c-4.49-6.16-12.16-10.34-20.03-10.02c-4.33,0.18-7.09,2.28-11.25,0.43c-5.69-2.52-10.5-6.4-16.41-8.64
				C142.25,20.08,141.6,19.85,140.95,19.62z"/>
			<g>
				<path class="st1" d="M64.02,123.66c2.46,8.37-1.24,16.83-8.26,18.89c-7.02,2.06-14.71-3.05-17.17-11.43
					c-2.46-8.37,1.24-16.83,8.26-18.89C53.87,110.17,61.56,115.29,64.02,123.66z"/>
				<path class="st1" d="M174.16,123.66c-2.46,8.37,1.24,16.83,8.26,18.89c7.02,2.06,14.71-3.05,17.17-11.43
					c2.46-8.37-1.24-16.83-8.26-18.89C184.31,110.17,176.62,115.29,174.16,123.66z"/>
				<path class="st2" d="M183.82,117.71c0,44.48-28.98,74.41-64.73,74.41s-64.73-29.94-64.73-74.41c0-47.19,28.98-75.43,64.73-75.43
					S183.82,73.24,183.82,117.71z"/>
				<g>
					<path class="st3" d="M137.75,142.18c-1.26,9.22-8.91,16.31-18.15,16.31c-9.25,0-16.89-7.09-18.15-16.31H137.75z"/>
					<path class="st4" d="M83.92,142.69c0,3.66-4.11,6.63-9.17,6.63c-5.07,0-9.17-2.97-9.17-6.63c0-3.66,4.11-6.63,9.17-6.63
						C79.81,136.06,83.92,139.03,83.92,142.69z"/>
					<path class="st4" d="M173.63,141.67c0,3.66-4.11,6.63-9.17,6.63c-5.07,0-9.17-2.97-9.17-6.63c0-3.66,4.11-6.63,9.17-6.63
						C169.52,135.04,173.63,138.01,173.63,141.67z"/>
					<path class="st5" d="M126.74,126.89c0,2.81-2.97,5.1-6.63,5.1c-3.66,0-6.63-2.28-6.63-5.1s2.97-5.1,6.63-5.1
						C123.77,121.79,126.74,124.07,126.74,126.89z"/>
				</g>
			</g>
			<path class="st0" d="M141.36,118.67c4.62-4.11,11.34-5.46,17.3-3.83c2.62,0.72,5.31,1.93,7.43,3.65
				c1.01,0.82,2.02,1.87,2.34,3.18c0.47,1.9-0.53,3.5-2.61,3.4c-0.82-0.04-1.61-0.35-2.35-0.73c-1.41-0.72-2.67-1.7-4.02-2.54
				c-4.6-2.85-10.57-2.09-14.79,1.14C142.21,124.83,139.06,120.72,141.36,118.67z"/>
			<path class="st0" d="M96.39,118.67c-4.62-4.11-11.34-5.46-17.3-3.83c-2.62,0.72-5.31,1.93-7.43,3.65
				c-1.01,0.82-2.02,1.87-2.34,3.18c-0.47,1.9,0.53,3.5,2.61,3.4c0.82-0.04,1.61-0.35,2.35-0.73c1.41-0.72,2.67-1.7,4.02-2.54
				c4.6-2.85,10.57-2.09,14.79,1.14C95.54,124.83,98.68,120.72,96.39,118.67z"/>
			<path class="st0" d="M128.87,96.02c-1.98,1.02-4.05,1.97-6.27,2.28c-2.23,0.31-4.67-0.1-6.31-1.53c-1.73-1.5-2.31-3.89-2.08-6.1
				c0.23-2.21,1.17-4.29,2.1-6.33c-3.18,4.61-7.58,8.49-12.7,11.18c-3.26,1.71-7.35,2.93-10.62,1.29c-2.84-1.42-4.19-4.67-4.1-7.69
				c0.09-3.03,1.35-5.91,2.59-8.71c-6.85,7.89-14.2,16.13-24.38,19.64c-2.68,0.92-5.55,1.49-8.37,1.13s-5.57-1.74-7.01-4.03
				c-1.99-3.14-1.18-7.16,0.08-10.63c4.34-12.04,13.19-23.38,23.58-31.58c15.35-12.11,34.97-19.15,54.95-18.56
				c8.41,0.25,17.07,2.16,23.53,7.18c6.54,5.07,10.87,14.43,6.43,21.76c-4.9,8.09-10.28,15.44-17.77,21.67
				C138.33,90.46,133.75,93.5,128.87,96.02z"/>
			<path class="st0" d="M158.09,88.36c3.03,9.4,8.41,18.24,16.26,24.23c2.5,1.9,5.74,3.57,8.66,2.41c3.23-1.28,4.3-5.25,4.81-8.69
				c1.31-8.82,1.73-17.83,0.29-26.63c-1.44-8.8-4.81-17.39-10.49-24.26c-2.45-2.96-5.4-5.64-8.99-7.01
				c-3.59-1.38-7.9-1.27-11.02,0.98c-4.98,3.58-3.38,11.17-3.17,16.47C154.74,73.47,155.75,81.09,158.09,88.36z"/>
		</g>
		<path class="st2" d="M136.93,183.97h-15.29h-1.02h-15.29c-1.02,25.48-27.52,30.58-27.52,30.58v21.41h42.81h1.02h42.81v-21.41
			C164.45,214.55,137.95,209.45,136.93,183.97z"/>
	</g>
	<g>
		<g>
			<polygon class="st6" points="171.31,430.34 166.86,338.06 166.86,327.68 76.08,327.68 69.88,430.34 69.83,431.48 69.84,431.89 
				73.46,522.63 104.88,522.03 105.01,432.35 111.42,360.85 129.76,360.85 136.18,432.35 136.31,522.03 167.73,522.63 
				171.35,431.89 171.36,431.48 			"/>
			<path class="st7" d="M73.83,518.27l-32.3,19.92c0,0-6.38,10.31,0.19,15.8c0,0,35.34,0.5,64.98-8.23c0,0,3.54-14.92-1.27-27.88
				L73.83,518.27z"/>
			<path class="st7" d="M167.76,518.27l32.3,19.92c0,0,6.38,10.31-0.19,15.8c0,0-35.34,0.5-64.98-8.23c0,0-3.54-14.92,1.27-27.88
				L167.76,518.27z"/>
		</g>
		<g>
			<path class="st2" d="M1.4,13.27c0.48-2.93,1.32-5.95,3.34-8.14C6.78,2.9,9.77,1.81,12.7,1.06c6.33-1.62,12.96-2.01,19.43-1.14
				c1.81,0.24,3.95,0.89,4.39,2.65c0.32,1.27-0.47,2.61-1.55,3.34s-2.41,0.99-3.7,1.23c-2.01,0.38-4.03,0.75-6.04,1.13
				c1.96-0.1,3.93-0.19,5.89-0.29c2.26-0.11,5.04,0.06,6.05,2.09c1.13,2.27-1.1,4.92-3.51,5.69c-2.42,0.77-5.08,0.47-7.49,1.26
				c2.5,0.62,5.15-0.21,7.7,0.15c2.55,0.36,5.18,3.02,3.88,5.25c-0.58,0.99-1.72,1.48-2.8,1.86c-2.82,0.99-5.75,1.68-8.72,2.05
				c2.93,0.07,5.84,0.41,8.7,1.03c1.05,0.23,2.28,0.68,2.5,1.73c0.26,1.28-1.18,2.21-2.42,2.65c-2.4,0.86-4.89,1.42-7.42,1.69
				c1.21,2.5,1.22,5.54,0.03,8.05c-0.25,0.52-0.56,1.03-1.04,1.34c-0.52,0.34-1.17,0.4-1.79,0.45c-6,0.49-17.22,1.69-21.73-3.66
				C-1.21,34.55,0.37,19.54,1.4,13.27z"/>
			<path class="st2" d="M236.74,13.27c-0.48-2.93-1.32-5.95-3.34-8.14c-2.05-2.23-5.04-3.32-7.97-4.07
				c-6.33-1.62-12.96-2.01-19.43-1.14c-1.81,0.24-3.95,0.89-4.39,2.65c-0.32,1.27,0.47,2.61,1.55,3.34c1.09,0.73,2.41,0.99,3.7,1.23
				c2.01,0.38,4.03,0.75,6.04,1.13c-1.96-0.1-3.93-0.19-5.89-0.29c-2.26-0.11-5.04,0.06-6.05,2.09c-1.13,2.27,1.1,4.92,3.51,5.69
				c2.42,0.77,5.08,0.47,7.49,1.26c-2.5,0.62-5.15-0.21-7.7,0.15c-2.55,0.36-5.18,3.02-3.88,5.25c0.58,0.99,1.72,1.48,2.8,1.86
				c2.82,0.99,5.75,1.68,8.72,2.05c-2.93,0.07-5.84,0.41-8.7,1.03c-1.05,0.23-2.28,0.68-2.5,1.73c-0.26,1.28,1.18,2.21,2.42,2.65
				c2.4,0.86,4.89,1.42,7.42,1.69c-1.21,2.5-1.22,5.54-0.03,8.05c0.25,0.52,0.56,1.03,1.04,1.34c0.52,0.34,1.17,0.4,1.79,0.45
				c6,0.49,17.22,1.69,21.73-3.66C239.34,34.55,237.77,19.54,236.74,13.27z"/>
			<path class="st7" d="M236.79,36.21l-14.24,0.98l-14.24,0.97c2.12,31.21,1.02,119.27-29.11,151.52
				c-7.31,7.82-15.8,11.63-25.96,11.63v0.37l-10.28,0.23c-0.91,7.08-10.57,12.65-22.34,12.65c-12.08,0-21.93-5.86-22.41-13.2
				l-1.04-0.05l-12.23,0.33v-0.33c-10.16,0-18.65-3.8-25.96-11.63C28.84,157.43,27.74,69.36,29.86,38.15l-14.24-0.97L1.39,36.21
				c-0.09,1.25-2.07,31.1,1.09,66.87c4.4,49.78,16.39,85.47,35.62,106.07c10.03,10.74,21.85,17.31,35.25,19.69l2.42,100.91h91.74
				l1.62-101.82c11.64-2.93,22.01-9.2,30.95-18.78c19.24-20.6,31.22-56.29,35.62-106.07C238.86,67.31,236.88,37.46,236.79,36.21z"/>
		</g>
	</g>
</g>
</svg>
