<?xml version="1.0" encoding="utf-8"?>
<!-- Generator: Adobe Illustrator 25.0.0, SVG Export Plug-In . SVG Version: 6.00 Build 0)  -->
<svg version="1.2" baseProfile="tiny" id="Layer_1" xmlns="http://www.w3.org/2000/svg" xmlns:xlink="http://www.w3.org/1999/xlink"
	 x="0px" y="0px" viewBox="0 0 238 554" overflow="visible" xml:space="preserve">
<g>
	<g>
		<g>
			<path fill="#350E09" d="M140.9,19.6c-38-13.2-87.3,7.9-104.6,44.2c-2.3,4.9-11.1,25.1,0.5,24.9c2.3,0,4.5-1,6.6-2
				c-3.7,2-6.8,5.2-8.8,8.9c-1.3,2.5-2.2,5.7-0.8,8.2c2.3,4.2,8.3,3.4,12.8,2.1c-3.5,2.1-4.6,6.8-4.5,11c0.2,9,4.3,17.4,8.6,25.3
				c5.8,10.5,12.2,20.8,20.6,29.3c8.4,8.5,18.9,15.2,30.5,17.4c7.9,1.5,16,0.9,23.9-0.3c22.8-3.7,46-14.4,57.5-34.7
				c3.1-5.6,5.3-11.7,7.1-17.8c6.4-21.5,9.3-44.1,8.5-66.6c-0.4-10.8-1.9-22.1-8.2-30.8c-4.5-6.2-12.2-10.3-20-10
				c-4.3,0.2-7.1,2.3-11.3,0.4c-5.7-2.5-10.5-6.4-16.4-8.6C142.3,20.1,141.6,19.8,140.9,19.6z"/>
			<g>
				<path fill="#F59377" d="M64,123.7c2.5,8.4-1.2,16.8-8.3,18.9s-14.7-3.1-17.2-11.4c-2.5-8.4,1.2-16.8,8.3-18.9
					S61.6,115.3,64,123.7z"/>
				<path fill="#F59377" d="M174.2,123.7c-2.5,8.4,1.2,16.8,8.3,18.9c7,2.1,14.7-3.1,17.2-11.4c2.5-8.4-1.2-16.8-8.3-18.9
					C184.3,110.2,176.6,115.3,174.2,123.7z"/>
				<path fill="#F7A182" d="M183.8,117.7c0,44.5-29,74.4-64.7,74.4s-64.7-29.9-64.7-74.4c0-47.2,29-75.4,64.7-75.4
					S183.8,73.2,183.8,117.7z"/>
				<g>
					<path fill="#FFFFFF" d="M137.8,142.2c-1.3,9.2-8.9,16.3-18.2,16.3c-9.3,0-16.9-7.1-18.2-16.3H137.8z"/>
					<path fill="#FA7C54" d="M83.9,142.7c0,3.7-4.1,6.6-9.2,6.6c-5.1,0-9.2-3-9.2-6.6s4.1-6.6,9.2-6.6S83.9,139,83.9,142.7z"/>
					<path fill="#FA7C54" d="M173.6,141.7c0,3.7-4.1,6.6-9.2,6.6c-5.1,0-9.2-3-9.2-6.6s4.1-6.6,9.2-6.6S173.6,138,173.6,141.7z"/>
					<path fill="#F28F7A" d="M126.7,126.9c0,2.8-3,5.1-6.6,5.1c-3.7,0-6.6-2.3-6.6-5.1c0-2.8,3-5.1,6.6-5.1
						C123.8,121.8,126.7,124.1,126.7,126.9z"/>
				</g>
			</g>
			<path fill="#350E09" d="M141.4,118.7c4.6-4.1,11.3-5.5,17.3-3.8c2.6,0.7,5.3,1.9,7.4,3.7c1,0.8,2,1.9,2.3,3.2
				c0.5,1.9-0.5,3.5-2.6,3.4c-0.8,0-1.6-0.3-2.4-0.7c-1.4-0.7-2.7-1.7-4-2.5c-4.6-2.8-10.6-2.1-14.8,1.1
				C142.2,124.8,139.1,120.7,141.4,118.7z"/>
			<path fill="#350E09" d="M96.4,118.7c-4.6-4.1-11.3-5.5-17.3-3.8c-2.6,0.7-5.3,1.9-7.4,3.7c-1,0.8-2,1.9-2.3,3.2
				c-0.5,1.9,0.5,3.5,2.6,3.4c0.8,0,1.6-0.3,2.3-0.7c1.4-0.7,2.7-1.7,4-2.5c4.6-2.8,10.6-2.1,14.8,1.1
				C95.5,124.8,98.7,120.7,96.4,118.7z"/>
			<path fill="#350E09" d="M128.9,96c-2,1-4.1,2-6.3,2.3c-2.2,0.3-4.7-0.1-6.3-1.5c-1.7-1.5-2.3-3.9-2.1-6.1
				c0.2-2.2,1.2-4.3,2.1-6.3c-3.2,4.6-7.6,8.5-12.7,11.2c-3.3,1.7-7.3,2.9-10.6,1.3c-2.8-1.4-4.2-4.7-4.1-7.7c0.1-3,1.3-5.9,2.6-8.7
				c-6.8,7.9-14.2,16.1-24.4,19.6c-2.7,0.9-5.5,1.5-8.4,1.1s-5.6-1.7-7-4c-2-3.1-1.2-7.2,0.1-10.6c4.3-12,13.2-23.4,23.6-31.6
				c15.3-12.1,35-19.2,54.9-18.6c8.4,0.3,17.1,2.2,23.5,7.2c6.5,5.1,10.9,14.4,6.4,21.8c-4.9,8.1-10.3,15.4-17.8,21.7
				C138.3,90.5,133.8,93.5,128.9,96z"/>
			<path fill="#350E09" d="M158.1,88.4c3,9.4,8.4,18.2,16.3,24.2c2.5,1.9,5.7,3.6,8.7,2.4c3.2-1.3,4.3-5.3,4.8-8.7
				c1.3-8.8,1.7-17.8,0.3-26.6s-4.8-17.4-10.5-24.3c-2.4-3-5.4-5.6-9-7c-3.6-1.4-7.9-1.3-11,1c-5,3.6-3.4,11.2-3.2,16.5
				C154.7,73.5,155.8,81.1,158.1,88.4z"/>
		</g>
		<path fill="#F7A182" d="M136.9,184h-15.3h-1h-15.3c-1,25.5-27.5,30.6-27.5,30.6V236h42.8h1h42.8v-21.4
			C164.4,214.6,137.9,209.4,136.9,184z"/>
	</g>
	<g>
		<g>
			<polygon fill="#000A3E" points="171.3,430.3 166.9,338.1 166.9,327.7 76.1,327.7 69.9,430.3 69.8,431.5 69.8,431.9 73.5,522.6 
				104.9,522 105,432.4 111.4,360.9 129.8,360.9 136.2,432.4 136.3,522 167.7,522.6 171.4,431.9 171.4,431.5 			"/>
			<path fill="#FFBC00" d="M73.8,518.3l-32.3,19.9c0,0-6.4,10.3,0.2,15.8c0,0,35.3,0.5,65-8.2c0,0,3.5-14.9-1.3-27.9L73.8,518.3z"/>
			<path fill="#FFBC00" d="M167.8,518.3l32.3,19.9c0,0,6.4,10.3-0.2,15.8c0,0-35.3,0.5-65-8.2c0,0-3.5-14.9,1.3-27.9L167.8,518.3z"
				/>
		</g>
		<g>
			<path fill="#F7A182" d="M1.4,13.3c0.5-2.9,1.3-5.9,3.3-8.1c2-2.2,5-3.3,8-4.1c6.3-1.6,13-2,19.4-1.1c1.8,0.2,4,0.9,4.4,2.7
				C36.8,3.8,36,5.2,35,5.9s-2.4,1-3.7,1.2c-2,0.4-4,0.8-6,1.1c2-0.1,3.9-0.2,5.9-0.3c2.3-0.1,5,0.1,6,2.1c1.1,2.3-1.1,4.9-3.5,5.7
				c-2.4,0.8-5.1,0.5-7.5,1.3c2.5,0.6,5.1-0.2,7.7,0.1c2.5,0.4,5.2,3,3.9,5.3c-0.6,1-1.7,1.5-2.8,1.9c-2.8,1-5.8,1.7-8.7,2
				c2.9,0.1,5.8,0.4,8.7,1c1,0.2,2.3,0.7,2.5,1.7c0.3,1.3-1.2,2.2-2.4,2.6c-2.4,0.9-4.9,1.4-7.4,1.7c1.2,2.5,1.2,5.5,0,8
				c-0.3,0.5-0.6,1-1,1.3c-0.5,0.3-1.2,0.4-1.8,0.5c-6,0.5-17.2,1.7-21.7-3.7C-1.2,34.5,0.4,19.5,1.4,13.3z"/>
			<path fill="#F7A182" d="M236.7,13.3c-0.5-2.9-1.3-5.9-3.3-8.1c-2.1-2.2-5-3.3-8-4.1c-6.3-1.6-13-2-19.4-1.1
				c-1.8,0.2-3.9,0.9-4.4,2.7c-0.3,1.3,0.5,2.6,1.6,3.3c1.1,0.7,2.4,1,3.7,1.2c2,0.4,4,0.8,6,1.1c-2-0.1-3.9-0.2-5.9-0.3
				c-2.3-0.1-5,0.1-6.1,2.1c-1.1,2.3,1.1,4.9,3.5,5.7c2.4,0.8,5.1,0.5,7.5,1.3c-2.5,0.6-5.1-0.2-7.7,0.1c-2.6,0.4-5.2,3-3.9,5.3
				c0.6,1,1.7,1.5,2.8,1.9c2.8,1,5.8,1.7,8.7,2c-2.9,0.1-5.8,0.4-8.7,1c-1.1,0.2-2.3,0.7-2.5,1.7c-0.3,1.3,1.2,2.2,2.4,2.6
				c2.4,0.9,4.9,1.4,7.4,1.7c-1.2,2.5-1.2,5.5,0,8c0.3,0.5,0.6,1,1,1.3c0.5,0.3,1.2,0.4,1.8,0.5c6,0.5,17.2,1.7,21.7-3.7
				C239.3,34.5,237.8,19.5,236.7,13.3z"/>
			<path fill="#FFBC00" d="M236.8,36.2l-14.2,1l-14.2,1c2.1,31.2,1,119.3-29.1,151.5c-7.3,7.8-15.8,11.6-26,11.6v0.4l-10.3,0.2
				c-0.9,7.1-10.6,12.6-22.3,12.6c-12.1,0-21.9-5.9-22.4-13.2l-1-0.1l-12.2,0.3v-0.3c-10.2,0-18.7-3.8-26-11.6
				C28.8,157.4,27.7,69.4,29.9,38.1l-14.2-1l-14.2-1c-0.1,1.3-2.1,31.1,1.1,66.9c4.4,49.8,16.4,85.5,35.6,106.1
				c10,10.7,21.8,17.3,35.3,19.7l2.4,100.9h91.7l1.6-101.8c11.6-2.9,22-9.2,30.9-18.8c19.2-20.6,31.2-56.3,35.6-106.1
				C238.9,67.3,236.9,37.5,236.8,36.2z"/>
		</g>
	</g>
</g>
</svg>
