<?xml version="1.0" encoding="utf-8"?>
<!-- Generator: Adobe Illustrator 25.0.0, SVG Export Plug-In . SVG Version: 6.00 Build 0)  -->
<svg version="1.2" baseProfile="tiny" id="Layer_1" xmlns="http://www.w3.org/2000/svg" xmlns:xlink="http://www.w3.org/1999/xlink"
	 x="0px" y="0px" viewBox="0 0 105.9 342.3" overflow="visible" xml:space="preserve">
<g>
	<g>
		<g>
			<g>
				<polygon fill="#FFAC65" points="44.8,273.7 43.6,322.8 30.1,319.5 28.9,272.6 				"/>
				<g>
					<rect x="2.3" y="336.8" fill="#1D0300" width="44.1" height="5.5"/>
					<g>
						<path fill="#3C3CAE" d="M37.3,319.3c0,0,1.1-9.4-9.2-9c0,0-7.1-0.2-5.6,9c0,0-18.2,6.3-20.3,17.5h44.1l-1.6-17.4
							c-0.1-1.2-1.3-2-2.5-1.6L37.3,319.3z"/>
						
							<path fill="none" stroke="#FFFFFF" stroke-width="1.117" stroke-linecap="round" stroke-linejoin="round" stroke-miterlimit="10" d="
							M22.5,318.9c0,0,7-1,9.8,4"/>
						
							<path fill="none" stroke="#FFFFFF" stroke-width="1.117" stroke-linecap="round" stroke-linejoin="round" stroke-miterlimit="10" d="
							M18.1,321.2c0,0,7-1.4,9.8,3.5"/>
						
							<path fill="none" stroke="#FFFFFF" stroke-width="1.117" stroke-linecap="round" stroke-linejoin="round" stroke-miterlimit="10" d="
							M14.4,323.5c0,0,7-1.4,9.8,3.5"/>
					</g>
				</g>
			</g>
			<path fill="#3F2952" d="M26.9,150.3l-2.6,20.3c-0.6,4.7-0.9,9.4-0.9,14.1v119.7h24.4l8.7-154.1L26.9,150.3L26.9,150.3z"/>
		</g>
		<g>
			<g>
				<polygon fill="#FFAC65" points="62.3,273.7 63.5,322.8 77.1,319.5 78.3,272.6 				"/>
				<g>
					<rect x="60.8" y="336.8" fill="#1D0300" width="44.1" height="5.5"/>
					<g>
						<path fill="#3C3CAE" d="M69.8,319.3c0,0-1.1-9.4,9.2-9c0,0,7.1-0.2,5.6,9c0,0,18.2,6.3,20.3,17.5H60.8l1.6-17.4
							c0.1-1.2,1.3-2,2.5-1.6L69.8,319.3z"/>
						
							<path fill="none" stroke="#FFFFFF" stroke-width="1.117" stroke-linecap="round" stroke-linejoin="round" stroke-miterlimit="10" d="
							M84.6,318.9c0,0-7-1-9.8,4"/>
						
							<path fill="none" stroke="#FFFFFF" stroke-width="1.117" stroke-linecap="round" stroke-linejoin="round" stroke-miterlimit="10" d="
							M89.1,321.2c0,0-7-1.4-9.8,3.5"/>
						
							<path fill="none" stroke="#FFFFFF" stroke-width="1.117" stroke-linecap="round" stroke-linejoin="round" stroke-miterlimit="10" d="
							M92.7,323.5c0,0-7-1.4-9.8,3.5"/>
					</g>
				</g>
			</g>
			<g>
				<path fill="#3F2952" d="M79.3,150.3l2.6,20.3c0.6,4.7,0.9,9.4,0.9,14.1v119.7H58.5l-8.7-154.1L79.3,150.3L79.3,150.3z"/>
				<g>
					
						<line fill="none" stroke="#1D0300" stroke-width="0.6895" stroke-linecap="round" stroke-linejoin="round" stroke-miterlimit="10" x1="53.4" y1="214.6" x2="52.3" y2="183.3"/>
					
						<line fill="none" stroke="#1D0300" stroke-width="0.6895" stroke-linecap="round" stroke-linejoin="round" stroke-miterlimit="10" x1="43.8" y1="184.7" x2="62.2" y2="181.7"/>
				</g>
			</g>
		</g>
	</g>
	<g>
		<g>
			<path fill="#FF652F" d="M86.6,78.9L61.5,68.4h0H44.9h0L19.7,78.9c-1.7,0.8-2.7,2.7-2.4,4.6l8.6,38.5l1,28.2h11.6h29.3h11.6
				l1-28.2L89,83.6C89.3,81.7,88.3,79.8,86.6,78.9z"/>
			<g>
				
					<polyline fill="none" stroke="#1D0300" stroke-width="0.6895" stroke-linecap="round" stroke-linejoin="round" stroke-miterlimit="10" points="
					38.9,71.9 46.7,80.1 53.1,74.1 58.9,80.1 65.9,71.2 				"/>
				
					<line fill="none" stroke="#1D0300" stroke-width="0.6895" stroke-linecap="round" stroke-linejoin="round" stroke-miterlimit="10" x1="53.1" y1="74.1" x2="53.1" y2="150.6"/>
			</g>
		</g>
		<g>
			<path fill="#FFAC65" d="M15.1,155.1l10.8,9.2c0,0,9.1-6.5,6.1-14.1l-14.8-12L15.1,155.1z"/>
			<g>
				<path fill="#FF652F" d="M13.3,87.1l-13,48.3c-1.1,4.7,0.6,9.6,4.3,12.7l10.5,7.1l11.5-14l-5.2-5l14-44.9
					c1.4-5.2-3.5-10.7-8.6-12.4l0,0C20.7,76.7,14.2,80.7,13.3,87.1z"/>
				
					<line fill="none" stroke="#1D0300" stroke-width="0.6895" stroke-linecap="round" stroke-linejoin="round" stroke-miterlimit="10" x1="20.8" y1="99.4" x2="25.9" y2="122.1"/>
			</g>
		</g>
		<g>
			<path fill="#FFAC65" d="M90.9,155.1l-10.8,9.2c0,0-9.1-6.5-6.1-14.1l14.8-12L90.9,155.1z"/>
			<g>
				<path fill="#FF652F" d="M92.7,87.1l13,48.3c1.1,4.7-1.6,9.6-5.3,12.7l-9.5,7.1l-11.5-14l5.2-5l-14-44.9
					C69.1,86,74,80.6,79.1,78.8l0,0C85.2,76.7,91.8,80.7,92.7,87.1z"/>
				
					<line fill="none" stroke="#1D0300" stroke-width="0.6895" stroke-linecap="round" stroke-linejoin="round" stroke-miterlimit="10" x1="85.1" y1="99.4" x2="80.1" y2="122.1"/>
			</g>
		</g>
	</g>
	<g>
		<g>
			<path fill="#FFAC65" d="M36.2,31.1c0,0-3.5-2.7-6,0.5c-3.9,4.9,2.9,13.6,8.7,9.1L36.2,31.1z"/>
			
				<path fill="none" stroke="#1D0300" stroke-width="0.6895" stroke-linecap="round" stroke-linejoin="round" stroke-miterlimit="10" d="
				M31.8,34.5c0,0,3.3-0.1,5.1,3.6"/>
		</g>
		<g>
			<path fill="#FFAC65" d="M70.2,31.3c0,0,3.4-2.6,5.9,0.5c3.8,4.8-2.8,13.4-8.6,8.9L70.2,31.3z"/>
			
				<path fill="none" stroke="#1D0300" stroke-width="0.6895" stroke-linecap="round" stroke-linejoin="round" stroke-miterlimit="10" d="
				M74.3,34.5c0,0-3-0.1-4.9,3.6"/>
		</g>
		<ellipse fill="#823B39" cx="53.5" cy="22.6" rx="20.9" ry="20.8"/>
		<polygon fill="#FFAC65" points="46,48.1 44.8,68.4 53.1,74.1 61.4,68.4 59.6,47.6 		"/>
		<path d="M46.5,51.6c0.5,0.3,14.3,8.8,14.3,8.8l-0.8-10.5L46.5,51.6z"/>
		<path fill="#FFAC65" d="M36.5,22.3c0,0-2.6,30.5,16.3,30.9c20.4,0.4,17.8-30.9,17.8-30.9s-0.1-16-17.2-16
			C37.7,6.2,36.5,22.3,36.5,22.3z"/>
		<path fill="#823B39" d="M37.8,13.8c0,0,14-3.9,32.4,0c0,0-1.7-9.2-16.2-9.2C39.6,4.7,37.8,13.8,37.8,13.8z"/>
		<path fill="#823B39" d="M39.2,12.9c0,0,1.5,4-2.8,9.4l-1.3-3.6L39,9.9"/>
		<path fill="#823B39" d="M68,12.9c0,0-1.6,4,2.8,9.4l1.3-3.6l-3.8-8.7"/>
		<g>
			<path d="M47,31.8c0,0.8-0.7,1.5-1.5,1.5s-1.5-0.7-1.5-1.5s0.7-1.5,1.5-1.5C46.4,30.4,47,31,47,31.8z"/>
			<path d="M61.5,31.8c0,0.8-0.7,1.5-1.5,1.5s-1.5-0.7-1.5-1.5s0.7-1.5,1.5-1.5C60.9,30.4,61.5,31,61.5,31.8z"/>
			
				<path fill="none" stroke="#1D0300" stroke-width="0.6895" stroke-linecap="round" stroke-linejoin="round" stroke-miterlimit="10" d="
				M51.4,34.5l0,2.5c0,0.4,0.3,0.8,0.8,0.8l1.1,0"/>
			<path fill="#823B39" d="M56.5,23.9c0,0-0.5,1.6,2.1,1.7c1.9,0,4.3,0.5,5.4,0.8c0.6,0.1,1.3-0.1,1.6-0.6l0,0
				c0.2-0.4,0.2-0.8-0.2-1.1c-0.7-0.6-3.2-2.1-5.6-2.1C56.9,22.4,56.5,23.9,56.5,23.9z"/>
			<path fill="#823B39" d="M48.7,23.9c0,0,0.5,1.6-2.1,1.7c-1.9,0-4.3,0.5-5.4,0.8c-0.6,0.1-1.3-0.1-1.6-0.6l0,0
				c-0.2-0.4-0.2-0.8,0.2-1.1c0.7-0.6,3.2-2.1,5.6-2.1C48.4,22.4,48.7,23.9,48.7,23.9z"/>
			<path fill="#823B39" d="M48.8,39.6h7.1c1.2,0,2.3,0.6,2.9,1.5l0.2,0.3c0.3,0.4,0,1-0.5,1H46.3c-0.5,0-0.8-0.5-0.6-1l0,0
				C46.3,40.4,47.5,39.6,48.8,39.6z"/>
			
				<line fill="none" stroke="#1D0300" stroke-width="0.6895" stroke-linecap="round" stroke-linejoin="round" stroke-miterlimit="10" x1="51" y1="44.2" x2="54.1" y2="44.2"/>
		</g>
		<path fill="#823B39" d="M41.8,13c0,0,10.5-2.2,18.3,2.6c8.8,5.5,15.9-0.5,14.8-7.6c-1.2-7.3-11.3-9-20.8-7.6
			c-7.7,1.1-12.3,4.9-12.3,4.9V13z"/>
		<path fill="#823B39" d="M41.8,5.4c0,0-16,0.9-8.7,21.8L41.8,5.4z"/>
	</g>
</g>
</svg>
