<?xml version="1.0" encoding="utf-8"?>
<!-- Generator: Adobe Illustrator 25.0.0, SVG Export Plug-In . SVG Version: 6.00 Build 0)  -->
<svg version="1.1" id="Layer_1" xmlns="http://www.w3.org/2000/svg" xmlns:xlink="http://www.w3.org/1999/xlink" x="0px" y="0px"
	 viewBox="0 0 48.06 53.18" style="enable-background:new 0 0 48.06 53.18;" xml:space="preserve">
<style type="text/css">
	.st0{fill:#FFAC65;}
	.st1{fill:none;stroke:#1D0300;stroke-width:0.6895;stroke-linecap:round;stroke-linejoin:round;stroke-miterlimit:10;}
	.st2{fill:#823B39;}
</style>
<g>
	<g>
		<path class="st0" d="M7.13,31.1c0,0-3.47-2.69-6,0.5c-3.85,4.86,2.89,13.65,8.74,9.13L7.13,31.1z"/>
		<path class="st1" d="M2.73,34.55c0,0,3.25-0.09,5.14,3.61"/>
	</g>
	<g>
		<path class="st0" d="M41.08,31.31c0,0,3.4-2.64,5.88,0.49c3.77,4.76-2.83,13.38-8.57,8.94L41.08,31.31z"/>
		<path class="st1" d="M45.26,34.55c0,0-2.97-0.09-4.87,3.61"/>
	</g>
	
		<ellipse transform="matrix(0.2318 -0.9728 0.9728 0.2318 -3.2767 41.1418)" class="st2" cx="24.41" cy="22.65" rx="20.85" ry="20.85"/>
	<path class="st0" d="M7.37,22.27c0,0-2.58,30.53,16.29,30.91c20.39,0.41,17.82-30.91,17.82-30.91S41.36,6.25,24.27,6.25
		C8.6,6.25,7.37,22.27,7.37,22.27z"/>
	<path class="st2" d="M8.75,13.85c0,0,13.99-3.91,32.44,0c0,0-1.71-9.19-16.22-9.19C10.46,4.66,8.75,13.85,8.75,13.85z"/>
	<path class="st2" d="M10.14,12.88c0,0,1.55,3.99-2.77,9.39l-1.32-3.63l3.84-8.71"/>
	<path class="st2" d="M38.92,12.88c0,0-1.55,3.99,2.77,9.39l1.32-3.63l-3.84-8.71"/>
	<g>
		<path d="M17.93,31.82c0,0.8-0.65,1.45-1.45,1.45c-0.8,0-1.45-0.65-1.45-1.45c0-0.8,0.65-1.45,1.45-1.45
			C17.28,30.36,17.93,31.01,17.93,31.82z"/>
		<path d="M32.45,31.82c0,0.8-0.65,1.45-1.45,1.45c-0.8,0-1.45-0.65-1.45-1.45c0-0.8,0.65-1.45,1.45-1.45
			C31.79,30.36,32.45,31.01,32.45,31.82z"/>
		<path class="st1" d="M22.28,34.55l0.03,2.51c0.01,0.43,0.35,0.77,0.77,0.78l1.12,0.02"/>
		<path class="st2" d="M27.41,23.86c0,0-0.45,1.64,2.1,1.67c1.93,0.03,4.29,0.53,5.4,0.77c0.63,0.13,1.31-0.11,1.61-0.58l0,0
			c0.24-0.38,0.19-0.82-0.15-1.13c-0.69-0.63-3.23-2.08-5.58-2.14C27.78,22.37,27.41,23.86,27.41,23.86z"/>
		<path class="st2" d="M19.64,23.9c0,0,0.45,1.64-2.1,1.67c-1.93,0.03-4.29,0.53-5.4,0.77c-0.63,0.13-1.31-0.11-1.61-0.58l0,0
			c-0.24-0.38-0.19-0.82,0.15-1.13c0.69-0.63,3.23-2.08,5.58-2.14C19.27,22.41,19.64,23.9,19.64,23.9z"/>
		<path class="st2" d="M19.71,39.61h7.1c1.17,0,2.26,0.58,2.91,1.55l0.21,0.31c0.3,0.44-0.02,1.03-0.55,1.03h-12.2
			c-0.49,0-0.81-0.52-0.59-0.96l0,0C17.17,40.36,18.38,39.61,19.71,39.61z"/>
		<line class="st1" x1="21.89" y1="44.25" x2="25.01" y2="44.25"/>
	</g>
	<path class="st2" d="M12.72,13.03c0,0,10.53-2.23,18.28,2.64c8.82,5.54,15.95-0.5,14.8-7.61c-1.19-7.33-11.28-9.01-20.83-7.63
		c-7.71,1.12-12.25,4.94-12.25,4.94V13.03z"/>
	<path class="st2" d="M12.72,5.38c0,0-15.98,0.86-8.66,21.8L12.72,5.38z"/>
</g>
</svg>
