<?xml version="1.0" encoding="utf-8"?>
<!-- Generator: Adobe Illustrator 25.0.0, SVG Export Plug-In . SVG Version: 6.00 Build 0)  -->
<svg version="1.2" baseProfile="tiny" id="Layer_1" xmlns="http://www.w3.org/2000/svg" xmlns:xlink="http://www.w3.org/1999/xlink"
	 x="0px" y="0px" viewBox="0 0 48.1 53.2" overflow="visible" xml:space="preserve">
<g>
	<g>
		<path fill="#FFAC65" d="M7.1,31.1c0,0-3.5-2.7-6,0.5c-3.8,4.9,2.9,13.6,8.7,9.1L7.1,31.1z"/>
		
			<path fill="none" stroke="#1D0300" stroke-width="0.6895" stroke-linecap="round" stroke-linejoin="round" stroke-miterlimit="10" d="
			M2.7,34.5c0,0,3.3-0.1,5.1,3.6"/>
	</g>
	<g>
		<path fill="#FFAC65" d="M41.1,31.3c0,0,3.4-2.6,5.9,0.5c3.8,4.8-2.8,13.4-8.6,8.9L41.1,31.3z"/>
		
			<path fill="none" stroke="#1D0300" stroke-width="0.6895" stroke-linecap="round" stroke-linejoin="round" stroke-miterlimit="10" d="
			M45.3,34.5c0,0-3-0.1-4.9,3.6"/>
	</g>
	<ellipse fill="#823B39" cx="24.4" cy="22.6" rx="20.9" ry="20.9"/>
	<path fill="#FFAC65" d="M7.4,22.3c0,0-2.6,30.5,16.3,30.9C44,53.6,41.5,22.3,41.5,22.3s-0.1-16-17.2-16C8.6,6.2,7.4,22.3,7.4,22.3z
		"/>
	<path fill="#823B39" d="M8.8,13.8c0,0,14-3.9,32.4,0c0,0-1.7-9.2-16.2-9.2C10.5,4.7,8.8,13.8,8.8,13.8z"/>
	<path fill="#823B39" d="M10.1,12.9c0,0,1.6,4-2.8,9.4l-1.3-3.6l3.8-8.7"/>
	<path fill="#823B39" d="M38.9,12.9c0,0-1.5,4,2.8,9.4l1.3-3.6l-3.8-8.7"/>
	<g>
		<path d="M17.9,31.8c0,0.8-0.6,1.5-1.5,1.5c-0.8,0-1.4-0.7-1.4-1.5s0.6-1.5,1.4-1.5C17.3,30.4,17.9,31,17.9,31.8z"/>
		<path d="M32.5,31.8c0,0.8-0.6,1.5-1.5,1.5c-0.8,0-1.5-0.7-1.5-1.5s0.6-1.5,1.5-1.5C31.8,30.4,32.5,31,32.5,31.8z"/>
		
			<path fill="none" stroke="#1D0300" stroke-width="0.6895" stroke-linecap="round" stroke-linejoin="round" stroke-miterlimit="10" d="
			M22.3,34.5l0,2.5c0,0.4,0.4,0.8,0.8,0.8l1.1,0"/>
		<path fill="#823B39" d="M27.4,23.9c0,0-0.5,1.6,2.1,1.7c1.9,0,4.3,0.5,5.4,0.8c0.6,0.1,1.3-0.1,1.6-0.6l0,0
			c0.2-0.4,0.2-0.8-0.2-1.1c-0.7-0.6-3.2-2.1-5.6-2.1C27.8,22.4,27.4,23.9,27.4,23.9z"/>
		<path fill="#823B39" d="M19.6,23.9c0,0,0.5,1.6-2.1,1.7c-1.9,0-4.3,0.5-5.4,0.8c-0.6,0.1-1.3-0.1-1.6-0.6l0,0
			c-0.2-0.4-0.2-0.8,0.1-1.1c0.7-0.6,3.2-2.1,5.6-2.1C19.3,22.4,19.6,23.9,19.6,23.9z"/>
		<path fill="#823B39" d="M19.7,39.6h7.1c1.2,0,2.3,0.6,2.9,1.5l0.2,0.3c0.3,0.4,0,1-0.5,1H17.2c-0.5,0-0.8-0.5-0.6-1l0,0
			C17.2,40.4,18.4,39.6,19.7,39.6z"/>
		
			<line fill="none" stroke="#1D0300" stroke-width="0.6895" stroke-linecap="round" stroke-linejoin="round" stroke-miterlimit="10" x1="21.9" y1="44.2" x2="25" y2="44.2"/>
	</g>
	<path fill="#823B39" d="M12.7,13c0,0,10.5-2.2,18.3,2.6c8.8,5.5,16-0.5,14.8-7.6C44.6,0.7,34.5-1,25,0.4
		c-7.7,1.1-12.3,4.9-12.3,4.9S12.7,13,12.7,13z"/>
	<path fill="#823B39" d="M12.7,5.4c0,0-16,0.9-8.7,21.8L12.7,5.4z"/>
</g>
</svg>
