<?xml version="1.0" encoding="utf-8"?>
<!-- Generator: Adobe Illustrator 25.0.0, SVG Export Plug-In . SVG Version: 6.00 Build 0)  -->
<svg version="1.1" id="Layer_1" xmlns="http://www.w3.org/2000/svg" xmlns:xlink="http://www.w3.org/1999/xlink" x="0px" y="0px"
	 viewBox="0 0 105.87 342.3" style="enable-background:new 0 0 105.87 342.3;" xml:space="preserve">
<style type="text/css">
	.st0{fill:#FFAC65;}
	.st1{fill:#1D0300;}
	.st2{fill:#3C3CAE;}
	.st3{fill:none;stroke:#FFFFFF;stroke-width:1.117;stroke-linecap:round;stroke-linejoin:round;stroke-miterlimit:10;}
	.st4{fill:#3F2952;}
	.st5{fill:none;stroke:#1D0300;stroke-width:0.6895;stroke-linecap:round;stroke-linejoin:round;stroke-miterlimit:10;}
	.st6{fill:#FF652F;}
	.st7{fill:#823B39;}
</style>
<g>
	<g>
		<g>
			<g>
				<polygon class="st0" points="44.81,273.74 43.63,322.83 30.08,319.52 28.88,272.59 				"/>
				<g>
					<rect x="2.25" y="336.78" class="st1" width="44.08" height="5.53"/>
					<g>
						<path class="st2" d="M37.34,319.32c0,0,1.13-9.39-9.2-9.01c0,0-7.13-0.19-5.63,9.01c0,0-18.24,6.25-20.26,17.46h44.08
							l-1.63-17.36c-0.11-1.21-1.31-2-2.47-1.64L37.34,319.32z"/>
						<path class="st3" d="M22.51,318.85c0,0,7.03-0.98,9.84,3.97"/>
						<path class="st3" d="M18.08,321.17c0,0,7.03-1.44,9.84,3.51"/>
						<path class="st3" d="M14.45,323.46c0,0,7.03-1.44,9.84,3.51"/>
					</g>
				</g>
			</g>
			<path class="st4" d="M26.91,150.3l-2.64,20.31c-0.61,4.67-0.91,9.37-0.91,14.07V304.4h24.4l8.72-154.11H26.91V150.3z"/>
		</g>
		<g>
			<g>
				<polygon class="st0" points="62.35,273.74 63.53,322.83 77.08,319.52 78.28,272.59 				"/>
				<g>
					<rect x="60.82" y="336.77" class="st1" width="44.08" height="5.53"/>
					<g>
						<path class="st2" d="M69.81,319.32c0,0-1.13-9.39,9.2-9.01c0,0,7.13-0.19,5.63,9.01c0,0,18.24,6.25,20.26,17.46H60.83
							l1.63-17.36c0.11-1.21,1.31-2,2.47-1.64L69.81,319.32z"/>
						<path class="st3" d="M84.64,318.85c0,0-7.03-0.98-9.84,3.97"/>
						<path class="st3" d="M89.08,321.17c0,0-7.03-1.44-9.84,3.51"/>
						<path class="st3" d="M92.71,323.46c0,0-7.03-1.44-9.84,3.51"/>
					</g>
				</g>
			</g>
			<g>
				<path class="st4" d="M79.31,150.3l2.64,20.31c0.61,4.67,0.91,9.37,0.91,14.07V304.4h-24.4l-8.72-154.1L79.31,150.3L79.31,150.3z
					"/>
				<g>
					<line class="st5" x1="53.38" y1="214.64" x2="52.35" y2="183.33"/>
					<line class="st5" x1="43.81" y1="184.74" x2="62.2" y2="181.71"/>
				</g>
			</g>
		</g>
	</g>
	<g>
		<g>
			<path class="st6" d="M86.62,78.95L61.46,68.38h-0.05H44.87h-0.05L19.67,78.95c-1.73,0.85-2.69,2.73-2.37,4.63l8.59,38.52
				l1.02,28.2h11.58H67.8h11.58l1.02-28.2l8.59-38.52C89.3,81.68,88.34,79.8,86.62,78.95z"/>
			<g>
				<polyline class="st5" points="38.86,71.9 46.67,80.13 53.12,74.06 58.94,80.13 65.88,71.21 				"/>
				<line class="st5" x1="53.12" y1="74.06" x2="53.12" y2="150.64"/>
			</g>
		</g>
		<g>
			<path class="st0" d="M15.08,155.15l10.81,9.2c0,0,9.1-6.46,6.13-14.05l-14.78-11.98L15.08,155.15z"/>
			<g>
				<path class="st6" d="M13.28,87.08l-12.97,48.3c-1.06,4.69,0.59,9.58,4.27,12.68l10.49,7.08l11.5-13.96l-5.16-4.99l14.04-44.94
					c1.44-5.22-3.49-10.66-8.61-12.44l0,0C20.72,76.69,14.18,80.66,13.28,87.08z"/>
				<line class="st5" x1="20.82" y1="99.39" x2="25.89" y2="122.1"/>
			</g>
		</g>
		<g>
			<path class="st0" d="M90.88,155.15l-10.81,9.2c0,0-9.1-6.46-6.13-14.05l14.78-11.98L90.88,155.15z"/>
			<g>
				<path class="st6" d="M92.67,87.08l12.97,48.3c1.06,4.69-1.62,9.58-5.3,12.68l-9.46,7.08l-11.5-13.96l5.16-4.99L70.5,91.26
					c-1.44-5.22,3.49-10.66,8.61-12.44l0,0C85.23,76.69,91.77,80.66,92.67,87.08z"/>
				<line class="st5" x1="85.13" y1="99.39" x2="80.07" y2="122.1"/>
			</g>
		</g>
	</g>
	<g>
		<g>
			<path class="st0" d="M36.23,31.1c0,0-3.47-2.69-6,0.5c-3.85,4.86,2.89,13.65,8.74,9.13L36.23,31.1z"/>
			<path class="st5" d="M31.83,34.55c0,0,3.25-0.09,5.14,3.61"/>
		</g>
		<g>
			<path class="st0" d="M70.18,31.31c0,0,3.4-2.64,5.88,0.49c3.77,4.76-2.83,13.38-8.57,8.94L70.18,31.31z"/>
			<path class="st5" d="M74.35,34.55c0,0-2.97-0.09-4.87,3.61"/>
		</g>
		<ellipse class="st7" cx="53.51" cy="22.64" rx="20.85" ry="20.85"/>
		<polygon class="st0" points="46,48.09 44.82,68.38 53.12,74.06 61.41,68.38 59.56,47.58 		"/>
		<path d="M46.45,51.65c0.52,0.26,14.25,8.77,14.25,8.77l-0.85-10.53L46.45,51.65z"/>
		<path class="st0" d="M36.46,22.27c0,0-2.58,30.53,16.29,30.91c20.39,0.41,17.82-30.91,17.82-30.91S70.45,6.25,53.36,6.25
			C37.69,6.25,36.46,22.27,36.46,22.27z"/>
		<path class="st7" d="M37.85,13.85c0,0,13.99-3.91,32.44,0c0,0-1.71-9.19-16.22-9.19C39.56,4.66,37.85,13.85,37.85,13.85z"/>
		<path class="st7" d="M39.23,12.88c0,0,1.55,3.99-2.77,9.39l-1.32-3.63l3.84-8.71"/>
		<path class="st7" d="M68.02,12.88c0,0-1.55,3.99,2.77,9.39l1.32-3.63l-3.84-8.71"/>
		<g>
			<path d="M47.02,31.82c0,0.8-0.65,1.45-1.45,1.45s-1.45-0.65-1.45-1.45s0.65-1.45,1.45-1.45C46.37,30.36,47.02,31.01,47.02,31.82z
				"/>
			<path d="M61.54,31.82c0,0.8-0.65,1.45-1.45,1.45s-1.45-0.65-1.45-1.45s0.65-1.45,1.45-1.45C60.89,30.36,61.54,31.01,61.54,31.82z
				"/>
			<path class="st5" d="M51.38,34.55l0.03,2.51c0.01,0.43,0.35,0.77,0.77,0.78l1.12,0.02"/>
			<path class="st7" d="M56.51,23.86c0,0-0.45,1.64,2.1,1.67c1.93,0.03,4.29,0.53,5.4,0.77c0.63,0.13,1.31-0.11,1.61-0.58l0,0
				c0.24-0.38,0.19-0.82-0.15-1.13c-0.69-0.63-3.23-2.08-5.58-2.14C56.87,22.37,56.51,23.86,56.51,23.86z"/>
			<path class="st7" d="M48.73,23.9c0,0,0.45,1.64-2.1,1.67c-1.93,0.03-4.29,0.53-5.4,0.77c-0.63,0.13-1.31-0.11-1.61-0.58l0,0
				c-0.24-0.38-0.19-0.82,0.15-1.13c0.69-0.63,3.23-2.08,5.58-2.14C48.37,22.41,48.73,23.9,48.73,23.9z"/>
			<path class="st7" d="M48.8,39.61h7.1c1.17,0,2.26,0.58,2.91,1.55l0.21,0.31c0.3,0.44-0.02,1.03-0.55,1.03h-12.2
				c-0.49,0-0.81-0.52-0.59-0.96l0,0C46.27,40.36,47.48,39.61,48.8,39.61z"/>
			<line class="st5" x1="50.99" y1="44.25" x2="54.1" y2="44.25"/>
		</g>
		<path class="st7" d="M41.82,13.03c0,0,10.53-2.23,18.28,2.64c8.82,5.54,15.95-0.5,14.8-7.61c-1.19-7.33-11.28-9.01-20.83-7.63
			c-7.71,1.12-12.25,4.94-12.25,4.94V13.03z"/>
		<path class="st7" d="M41.82,5.38c0,0-15.98,0.86-8.66,21.8L41.82,5.38z"/>
	</g>
</g>
</svg>
