<?xml version="1.0" encoding="utf-8"?>
<!-- Generator: Adobe Illustrator 25.0.0, SVG Export Plug-In . SVG Version: 6.00 Build 0)  -->
<svg version="1.2" baseProfile="tiny" id="Layer_1" xmlns="http://www.w3.org/2000/svg" xmlns:xlink="http://www.w3.org/1999/xlink"
	 x="0px" y="0px" viewBox="0 0 178 276" overflow="visible" xml:space="preserve">
<g id="XMLID_47_">
	<path id="XMLID_64_" fill="#F2AE30" d="M120.5,144l5.6-13.5c0,0,15.2,7.1,20.2,16c5.4,9.4,11.9,59.6,11.9,59.6s-26.9,6.2-31.8,3.6
		C121.6,207.1,120.5,144,120.5,144z"/>
</g>
<path id="XMLID_63_" fill="#0A2240" d="M77.8,81.5c-3.9-1.4-8.1-2.7-12.3-2.4s-8.5,2.5-9.9,6.3c-1,2.6-0.5,5.7-2.2,8.1
	c-1.5,2.3-4.6,3.2-7.5,3.4c-2.9,0.2-5.8-0.2-8.6,0.2c-8.8,1.2-15.1,10.7-12.2,18.6c1.1,3.1,3.5,6.1,3,9.3c-0.6,3.5-4.2,5.8-5.7,9
	c-2,4.3,0.4,9.5,4.3,12.4c3.9,2.9,9,4,14,4.8c6.8,1,13.9,1.5,20.6,0.1s13.2-5,16.7-10.6c1.6-2.5,2.5-5.2,4.3-7.6
	c3.7-4.8,10.3-6.6,15.5-10c5.7-3.7,9.8-10.9,6.5-16.6c-3.2-5.4-11.6-6.6-15-12c-1.4-2.2-1.7-4.8-2.6-7.3
	C85.8,84.9,83.6,83.6,77.8,81.5z"/>
<g id="XMLID_48_">
	<path id="XMLID_62_" fill="#F9A07B" d="M100.7,148.1c1,1.1,2.2,2.4,3.8,2.5c1.7,0.1,3.1-1.1,4.2-2.3c5.7-6,9.4-13.4,10.9-21
		c-1.4-0.8-2.8-1.6-4-2.3c-1.1-0.7-2-1.6-2.5-2.7c-0.3-0.8-0.5-1.7-0.4-2.6c0.8-7.5,1.5-11.7,4.2-19.3c-12.5-2.8-24.4-6.2-31.2-11.9
		c-0.8,3.5-1.8,10.3-3.9,17.1c-2.2,7.2-5.7,14.3-11.6,17.4C81.8,129.9,92.2,138.4,100.7,148.1z"/>
	<path id="XMLID_61_" fill="#E06A58" d="M112.8,119.8c-0.1,0.9,0,1.8,0.4,2.6c-7.4,9-24-2.8-31.3-16.7c2.1-6.8,3.1-13.6,3.9-17.1
		c6.8,5.7,18.6,9,31.2,11.9C114.3,108.1,113.6,112.2,112.8,119.8z"/>
</g>
<path id="XMLID_60_" fill="#FFC73C" d="M143.8,256.9c-24.9,0-77,1.5-103.6-2.1c-1.2-6.7,11.9-21.8,11.9-36.6c0-2-0.1-4.1-0.2-6.4
	c-0.4-6.6-1.4-14.5-2.5-22.6c-3-21.7-6.9-45-4-49.8c5.7-9.4,19-15.8,25.6-18.5c2.3-0.9,3.8-1.4,3.9-1.5
	c8.3,14.1,25.2,26.2,31.5,25.7c1.8-0.1,7-2,10.5-19.4c1.3,0.8,2.7,1.5,4,2.2c6.6,3.4,12.8,6.3,14.6,10.7c4.7,11.6,9.3,40.9,8.3,51.3
	c-1,10.5-5.3,18.5-8.2,29.1c-0.7,2.5-1.3,5.1-1.8,7.9c-0.1,0.6-0.2,1.3-0.3,2C131.8,239.4,143.5,251.1,143.8,256.9"/>
<path id="XMLID_59_" fill="#FFBB33" d="M143.8,256.9c-24.9,0-77,1.5-103.6-2.1c-1.2-6.7,11.9-21.8,11.9-36.6c0-2-0.1-4.1-0.2-6.4
	c-0.4-6.6-1.4-14.5-2.5-22.6c4.7,5,11.6-16,14.6-9.9c16.5,33.2,29.4,41.9,52,41.9c6.7,0,12.9-0.9,19.6-2.4c-0.7,2.5-1.3,5.1-1.8,7.9
	c-0.1,0.6-0.2,1.3-0.3,2C131.8,239.4,143.5,251.1,143.8,256.9"/>
<path id="XMLID_58_" fill="#FCE172" d="M121,127.7c-1.1,7.8-4.2,18.2-13.5,21c-12.5,3.7-30.5-19.5-36.5-27.9
	c2.3-0.9,3.8-1.4,3.9-1.5c8.3,14.1,25.2,26.2,31.5,25.7c1.8-0.1,7-2,10.5-19.4C118.3,126.3,119.6,127,121,127.7z"/>
<g id="XMLID_114_">
	<g id="XMLID_115_">
		
			<ellipse id="XMLID_116_" transform="matrix(0.1832 -0.9831 0.9831 0.1832 27.0331 209.6341)" fill="#56C4F9" cx="139.7" cy="88.5" rx="17.4" ry="11.5"/>
	</g>
	<path id="XMLID_117_" fill="#0B2D50" d="M151,61c-1.2,8.2-4.8,17.3-10.2,27.3c-1.9-8.2-3.1-18.2-4.7-28.2c-1.7-10-3.8-20-7.6-28.2
		c-0.8-1.8-1.7-3.5-2.7-5.1c2.2-0.2,4.4,0,6.6,0.6c3.3,0.9,6.4,2.6,9,4.9c4.2,3.8,7.1,8.9,8.8,14.3C151.5,51.1,151.7,55.9,151,61z"
		/>
	<g id="XMLID_118_">
		<path id="XMLID_119_" fill="#F9A07B" d="M144.7,69.5c-0.1,1.6-0.2,3.3-0.3,4.9c-2.3,26.6-13.4,44.9-30.5,44.9
			c-24.1,0-39.8-27.1-39.8-53.6c0-26.2,16-45.1,34.8-42.9c10.8,1.2,18.7,4.8,24.3,10.1c3.7,3.5,6.4,7.7,8.2,12.5
			c2.1,5.4,3.1,11.5,3.3,18.1c0,0,0,0,0,0.1C144.8,65.5,144.8,67.5,144.7,69.5z"/>
		<path id="XMLID_120_" fill="#E06A58" d="M144.7,69.5c-0.7-2.6-1.8-5.1-3.3-7.3c-14.2,7.4-31.2,10.3-47.3,7.6
			c-3.1,2.5-6.1,5.1-9.1,7.6c0.1-12.1,0.2-20.3,5-26.2c4.4-5.5,11.8-7.6,18.8-8.5c7.9-1,15.9-1,23.8,0.2c3,0.4,6.1,1.1,8.8,2.6
			c2.1,5.4,3.1,11.5,3.3,18.1c0,0,0,0,0,0.1C144.8,65.5,144.8,67.5,144.7,69.5z"/>
	</g>
	<path id="XMLID_121_" fill="#0B2D50" d="M148.2,53.1c-3.3,2.8-7.5,5.1-12.1,7c-13.3,5.4-30.5,7.1-43.9,6.5
		c-6.6,14.5-9.3,19.7-11,32.4c-6.5-6.1-11.7-17.1-13.3-25.8c-1.5-8.7-1.4-17.8,1-26.3C72.7,33.3,82.4,26.1,89,22.6
		c1.7-0.9,3.2-1.5,4.3-2c8.5-3.3,18.1-3,26.8-0.3c4.8,1.5,8.8,4,12.1,7.1c6.8,6.2,11,14.5,13.7,20.7C146.9,50,147.6,51.7,148.2,53.1
		z"/>
	<path id="XMLID_122_" fill="#225570" d="M151,61c-0.6-2.9-1.4-5.7-2.5-8.5c-0.6-1.5-1.4-3-2.4-4.5c-3-4.8-7.4-8.7-12.8-10.4
		c-1.5-2.1-3.1-4-4.8-5.7c-6.1-6.1-13.2-9.7-20.7-10.9c-6.3-1-12.8-0.4-18.8,1.6c1.7-0.9,3.2-1.5,4.3-2c8.5-3.3,18.1-3,26.8-0.3
		c4.8,1.5,8.8,4,12.1,7.1c3.3,0.9,6.4,2.6,9,4.9c4.2,3.8,7.1,8.9,8.8,14.3C151.5,51.1,151.7,55.9,151,61z"/>
	<g id="XMLID_123_">
		<g id="XMLID_124_">
			<path id="XMLID_125_" fill="none" stroke="#0B2D50" stroke-width="2" stroke-linecap="round" stroke-miterlimit="10" d="
				M99.8,77.3c4.5-2.5,9.1-3.7,15.6-1.3"/>
			<path id="XMLID_126_" fill="none" stroke="#0B2D50" stroke-width="2" stroke-linecap="round" stroke-miterlimit="10" d="
				M130.4,77.1c3.8-2.8,9.5-3.1,12.4,0"/>
			<path id="XMLID_127_" fill="none" stroke="#CC454E" stroke-width="2" stroke-linecap="round" stroke-miterlimit="10" d="
				M125.7,91.7c0.4,2,0.2,6.5-0.8,8.5"/>
			<ellipse id="XMLID_128_" fill="#262D40" cx="110.7" cy="90.1" rx="1.8" ry="2.9"/>
			<ellipse id="XMLID_129_" fill="#262D40" cx="134.7" cy="88.8" rx="1.8" ry="2.9"/>
		</g>
		<g id="XMLID_130_">
			<path id="XMLID_131_" fill="#CC454E" d="M123.5,104.1c0,0-0.4,0.7-1,1.6c-1.1,1.5-2.9,3.5-5.4,4.2h0c-1.1,0.3-2.2,0.5-3.5,0.2
				c-3.8-0.7-4.8-4.1-4.9-6.8c0-0.5,0-1,0-1.4c0-1.1,0.1-1.8,0.1-1.8C114.7,103.5,123.5,104.1,123.5,104.1z"/>
			<path id="XMLID_132_" fill="#FFFFFF" d="M123.5,104.1c0,0-0.4,0.7-1,1.6c-3.1,0-9.3-1.6-13.9-3.8c0-1.1,0.1-1.8,0.1-1.8
				C114.7,103.5,123.5,104.1,123.5,104.1z"/>
			<path id="XMLID_133_" fill="#E8729B" d="M117,110c-1.1,0.3-2.2,0.5-3.5,0.2c-3.8-0.7-4.8-4.1-4.9-6.8c1.8,0.2,3.6,0.9,5,2
				C115.1,106.6,116.3,108.2,117,110z"/>
		</g>
	</g>
	<g id="XMLID_134_">
		<path id="XMLID_135_" fill="#3D86E0" d="M81.2,72.7c0,0-0.2-12.5,5-24.9c6.5-15.5,19.8-22.2,32.6-22.7c15.5-0.5,25.2,9.9,25.2,9.9
			s-5.1-8.9-15-11.5c-6.5-1.7-16.4-2-24.3,1.3c-8.2,3.3-18.3,12.5-22,22.2c-3.7,9.7-5.5,24.8-5.5,24.8L81.2,72.7z"/>
		<g id="XMLID_136_">
			
				<ellipse id="XMLID_137_" transform="matrix(0.9946 -0.1034 0.1034 0.9946 -8.5708 8.6428)" fill="#56C4F9" cx="79.1" cy="87" rx="12.1" ry="18.3"/>
			
				<ellipse id="XMLID_138_" transform="matrix(0.9889 -0.1486 0.1486 0.9889 -12.2809 12.2526)" fill="#3D86E0" cx="75.9" cy="88.3" rx="7.9" ry="13.8"/>
		</g>
		<g id="XMLID_139_">
			<ellipse id="XMLID_140_" fill="#3A92C9" cx="119" cy="115.6" rx="6.4" ry="4"/>
			<path id="XMLID_141_" fill="none" stroke="#3A92C9" stroke-width="2" stroke-linecap="round" stroke-miterlimit="10" d="
				M86.6,102.2c0,0,9.5,12.2,25.9,13.4"/>
		</g>
	</g>
</g>
<g id="XMLID_142_">
	<g id="XMLID_143_">
		<path id="XMLID_2_" fill="#FFC73C" d="M79.1,209.4c0,0-3.9-47.5-8.8-61.4c-2.5-6.9-11.5-21.1-11.5-21.1s-13.8,5.7-18.6,15.4
			c-8.3,16.4-4.1,63.6-4.1,63.6"/>
	</g>
	<path id="XMLID_152_" fill="none" stroke="#F2AE30" stroke-linecap="round" stroke-miterlimit="10" d="M72,151
		c3.8,17.9,5.8,34.7,6.4,51.1"/>
</g>
</svg>
