<?xml version="1.0" encoding="utf-8"?>
<!-- Generator: Adobe Illustrator 25.0.0, SVG Export Plug-In . SVG Version: 6.00 Build 0)  -->
<svg version="1.1" id="Layer_1" xmlns="http://www.w3.org/2000/svg" xmlns:xlink="http://www.w3.org/1999/xlink" x="0px" y="0px"
	 viewBox="0 0 41.09 256.98" style="enable-background:new 0 0 41.09 256.98;" xml:space="preserve">
<style type="text/css">
	.st0{fill:#0C1729;}
	.st1{font-family:'Arial-BoldMT';}
	.st2{font-size:12px;}
</style>
<g>
	<g>
		<rect x="24.87" y="200.27" class="st0" width="16.22" height="0.55"/>
	</g>
	<g>
		<rect x="24.87" y="224.5" class="st0" width="16.22" height="0.55"/>
	</g>
	<g>
		<rect x="24.87" y="248.73" class="st0" width="16.22" height="0.55"/>
	</g>
	<g>
		<rect x="34.21" y="246.29" class="st0" width="6.88" height="0.55"/>
	</g>
	<g>
		<rect x="34.21" y="243.87" class="st0" width="6.88" height="0.55"/>
	</g>
	<g>
		<rect x="34.21" y="241.45" class="st0" width="6.88" height="0.55"/>
	</g>
	<g>
		<rect x="34.21" y="239.03" class="st0" width="6.88" height="0.55"/>
	</g>
	<g>
		<rect x="29.73" y="236.61" class="st0" width="11.36" height="0.55"/>
	</g>
	<g>
		<rect x="34.21" y="234.2" class="st0" width="6.88" height="0.55"/>
	</g>
	<g>
		<rect x="34.21" y="231.76" class="st0" width="6.88" height="0.55"/>
	</g>
	<g>
		<rect x="34.21" y="229.34" class="st0" width="6.88" height="0.55"/>
	</g>
	<g>
		<rect x="34.21" y="226.92" class="st0" width="6.88" height="0.55"/>
	</g>
	<g>
		<rect x="34.21" y="202.69" class="st0" width="6.88" height="0.55"/>
	</g>
	<g>
		<rect x="34.21" y="205.11" class="st0" width="6.88" height="0.55"/>
	</g>
	<g>
		<rect x="34.21" y="207.53" class="st0" width="6.88" height="0.55"/>
	</g>
	<g>
		<rect x="34.21" y="209.97" class="st0" width="6.88" height="0.55"/>
	</g>
	<g>
		<rect x="29.73" y="212.39" class="st0" width="11.36" height="0.55"/>
	</g>
	<g>
		<rect x="34.21" y="214.8" class="st0" width="6.88" height="0.55"/>
	</g>
	<g>
		<rect x="34.21" y="217.22" class="st0" width="6.88" height="0.55"/>
	</g>
	<g>
		<rect x="34.21" y="219.64" class="st0" width="6.88" height="0.55"/>
	</g>
	<g>
		<rect x="34.21" y="222.08" class="st0" width="6.88" height="0.55"/>
	</g>
	<g>
		<rect x="24.87" y="176.04" class="st0" width="16.22" height="0.55"/>
	</g>
	<g>
		<rect x="24.87" y="151.82" class="st0" width="16.22" height="0.55"/>
	</g>
	<g>
		<rect x="34.21" y="154.23" class="st0" width="6.88" height="0.55"/>
	</g>
	<g>
		<rect x="34.21" y="156.67" class="st0" width="6.88" height="0.55"/>
	</g>
	<g>
		<rect x="34.21" y="159.09" class="st0" width="6.88" height="0.55"/>
	</g>
	<g>
		<rect x="34.21" y="161.51" class="st0" width="6.88" height="0.55"/>
	</g>
	<g>
		<rect x="29.73" y="163.93" class="st0" width="11.36" height="0.55"/>
	</g>
	<g>
		<rect x="34.21" y="166.35" class="st0" width="6.88" height="0.55"/>
	</g>
	<g>
		<rect x="34.21" y="168.77" class="st0" width="6.88" height="0.55"/>
	</g>
	<g>
		<rect x="34.21" y="171.21" class="st0" width="6.88" height="0.55"/>
	</g>
	<g>
		<rect x="34.21" y="173.63" class="st0" width="6.88" height="0.55"/>
	</g>
	<g>
		<rect x="34.21" y="197.85" class="st0" width="6.88" height="0.55"/>
	</g>
	<g>
		<rect x="34.21" y="195.44" class="st0" width="6.88" height="0.55"/>
	</g>
	<g>
		<rect x="34.21" y="192.99" class="st0" width="6.88" height="0.55"/>
	</g>
	<g>
		<rect x="34.21" y="190.58" class="st0" width="6.88" height="0.55"/>
	</g>
	<g>
		<rect x="29.73" y="188.16" class="st0" width="11.36" height="0.55"/>
	</g>
	<g>
		<rect x="34.21" y="185.74" class="st0" width="6.88" height="0.55"/>
	</g>
	<g>
		<rect x="34.21" y="183.32" class="st0" width="6.88" height="0.55"/>
	</g>
	<g>
		<rect x="34.21" y="180.88" class="st0" width="6.88" height="0.55"/>
	</g>
	<g>
		<rect x="34.21" y="178.46" class="st0" width="6.88" height="0.55"/>
	</g>
	<g>
		<rect x="24.87" y="103.36" class="st0" width="16.22" height="0.55"/>
	</g>
	<g>
		<rect x="24.87" y="79.15" class="st0" width="16.22" height="0.55"/>
	</g>
	<g>
		<rect x="24.87" y="54.92" class="st0" width="16.22" height="0.55"/>
	</g>
	<g>
		<rect x="34.21" y="57.34" class="st0" width="6.88" height="0.55"/>
	</g>
	<g>
		<rect x="34.21" y="59.76" class="st0" width="6.88" height="0.55"/>
	</g>
	<g>
		<rect x="34.21" y="62.18" class="st0" width="6.88" height="0.55"/>
	</g>
	<g>
		<rect x="34.21" y="64.6" class="st0" width="6.88" height="0.55"/>
	</g>
	<g>
		<rect x="29.73" y="67.04" class="st0" width="11.36" height="0.55"/>
	</g>
	<g>
		<rect x="34.21" y="69.46" class="st0" width="6.88" height="0.55"/>
	</g>
	<g>
		<rect x="34.21" y="71.88" class="st0" width="6.88" height="0.55"/>
	</g>
	<g>
		<rect x="34.21" y="74.29" class="st0" width="6.88" height="0.55"/>
	</g>
	<g>
		<rect x="34.21" y="76.71" class="st0" width="6.88" height="0.55"/>
	</g>
	<g>
		<rect x="34.21" y="100.94" class="st0" width="6.88" height="0.55"/>
	</g>
	<g>
		<rect x="34.21" y="98.52" class="st0" width="6.88" height="0.55"/>
	</g>
	<g>
		<rect x="34.21" y="96.1" class="st0" width="6.88" height="0.55"/>
	</g>
	<g>
		<rect x="34.21" y="93.69" class="st0" width="6.88" height="0.55"/>
	</g>
	<g>
		<rect x="29.73" y="91.27" class="st0" width="11.36" height="0.55"/>
	</g>
	<g>
		<rect x="34.21" y="88.83" class="st0" width="6.88" height="0.55"/>
	</g>
	<g>
		<rect x="34.21" y="86.41" class="st0" width="6.88" height="0.55"/>
	</g>
	<g>
		<rect x="34.21" y="83.99" class="st0" width="6.88" height="0.55"/>
	</g>
	<g>
		<rect x="34.21" y="81.57" class="st0" width="6.88" height="0.55"/>
	</g>
	<g>
		<rect x="24.87" y="127.59" class="st0" width="16.22" height="0.55"/>
	</g>
	<g>
		<rect x="34.21" y="149.4" class="st0" width="6.88" height="0.55"/>
	</g>
	<g>
		<rect x="34.21" y="146.98" class="st0" width="6.88" height="0.55"/>
	</g>
	<g>
		<rect x="34.21" y="144.56" class="st0" width="6.88" height="0.55"/>
	</g>
	<g>
		<rect x="34.21" y="142.12" class="st0" width="6.88" height="0.55"/>
	</g>
	<g>
		<rect x="29.73" y="139.7" class="st0" width="11.36" height="0.55"/>
	</g>
	<g>
		<rect x="34.21" y="137.28" class="st0" width="6.88" height="0.55"/>
	</g>
	<g>
		<rect x="34.21" y="134.86" class="st0" width="6.88" height="0.55"/>
	</g>
	<g>
		<rect x="34.21" y="132.45" class="st0" width="6.88" height="0.55"/>
	</g>
	<g>
		<rect x="34.21" y="130.01" class="st0" width="6.88" height="0.55"/>
	</g>
	<g>
		<rect x="34.21" y="105.8" class="st0" width="6.88" height="0.55"/>
	</g>
	<g>
		<rect x="34.21" y="108.22" class="st0" width="6.88" height="0.55"/>
	</g>
	<g>
		<rect x="34.21" y="110.64" class="st0" width="6.88" height="0.55"/>
	</g>
	<g>
		<rect x="34.21" y="113.05" class="st0" width="6.88" height="0.55"/>
	</g>
	<g>
		<rect x="29.73" y="115.47" class="st0" width="11.36" height="0.55"/>
	</g>
	<g>
		<rect x="34.21" y="117.91" class="st0" width="6.88" height="0.55"/>
	</g>
	<g>
		<rect x="34.21" y="120.33" class="st0" width="6.88" height="0.55"/>
	</g>
	<g>
		<rect x="34.21" y="122.75" class="st0" width="6.88" height="0.55"/>
	</g>
	<g>
		<rect x="34.21" y="125.17" class="st0" width="6.88" height="0.55"/>
	</g>
	<g>
		<rect x="24.87" y="6.47" class="st0" width="16.22" height="0.55"/>
	</g>
	<g>
		<rect x="24.87" y="30.7" class="st0" width="16.22" height="0.55"/>
	</g>
	<g>
		<rect x="34.21" y="52.48" class="st0" width="6.88" height="0.55"/>
	</g>
	<g>
		<rect x="34.21" y="50.07" class="st0" width="6.88" height="0.55"/>
	</g>
	<g>
		<rect x="34.21" y="47.65" class="st0" width="6.88" height="0.55"/>
	</g>
	<g>
		<rect x="34.21" y="45.23" class="st0" width="6.88" height="0.55"/>
	</g>
	<g>
		<rect x="29.73" y="42.81" class="st0" width="11.36" height="0.55"/>
	</g>
	<g>
		<rect x="34.21" y="40.39" class="st0" width="6.88" height="0.55"/>
	</g>
	<g>
		<rect x="34.21" y="37.95" class="st0" width="6.88" height="0.55"/>
	</g>
	<g>
		<rect x="34.21" y="35.53" class="st0" width="6.88" height="0.55"/>
	</g>
	<g>
		<rect x="34.21" y="33.11" class="st0" width="6.88" height="0.55"/>
	</g>
	<g>
		<rect x="34.21" y="8.89" class="st0" width="6.88" height="0.55"/>
	</g>
	<g>
		<rect x="34.21" y="11.3" class="st0" width="6.88" height="0.55"/>
	</g>
	<g>
		<rect x="34.21" y="13.72" class="st0" width="6.88" height="0.55"/>
	</g>
	<g>
		<rect x="34.21" y="16.16" class="st0" width="6.88" height="0.55"/>
	</g>
	<g>
		<rect x="29.73" y="18.58" class="st0" width="11.36" height="0.55"/>
	</g>
	<g>
		<rect x="34.21" y="21" class="st0" width="6.88" height="0.55"/>
	</g>
	<g>
		<rect x="34.21" y="23.42" class="st0" width="6.88" height="0.55"/>
	</g>
	<g>
		<rect x="34.21" y="25.84" class="st0" width="6.88" height="0.55"/>
	</g>
	<g>
		<rect x="34.21" y="28.28" class="st0" width="6.88" height="0.55"/>
	</g>
	<text transform="matrix(1 0 0 1 0.8905 252.4585)" class="st0 st1 st2">100</text>
	<text transform="matrix(1 0 0 1 0.8905 228.3257)" class="st0 st1 st2">110</text>
	<text transform="matrix(1 0 0 1 -1.220703e-04 204.314)" class="st0 st1 st2">120</text>
	<text transform="matrix(1 0 0 1 0.8905 179.4107)" class="st0 st1 st2">130</text>
	<text transform="matrix(1 0 0 1 0.8905 155.2779)" class="st0 st1 st2">140</text>
	<text transform="matrix(1 0 0 1 -1.220703e-04 131.2661)" class="st0 st1 st2">150</text>
	<text transform="matrix(1 0 0 1 0.8905 107.4751)" class="st0 st1 st2">160</text>
	<text transform="matrix(1 0 0 1 0.8905 83.3423)" class="st0 st1 st2">170</text>
	<text transform="matrix(1 0 0 1 -1.220703e-04 59.3306)" class="st0 st1 st2">180</text>
	<text transform="matrix(1 0 0 1 0.8905 34.4278)" class="st0 st1 st2">190</text>
	<text transform="matrix(1 0 0 1 0.8905 10.295)" class="st0 st1 st2">200</text>
</g>
</svg>
