<?xml version="1.0" encoding="utf-8"?>
<!-- Generator: Adobe Illustrator 25.0.0, SVG Export Plug-In . SVG Version: 6.00 Build 0)  -->
<svg version="1.2" baseProfile="tiny" id="Layer_1" xmlns="http://www.w3.org/2000/svg" xmlns:xlink="http://www.w3.org/1999/xlink"
	 x="0px" y="0px" viewBox="0 0 489.6 622.4" overflow="visible" xml:space="preserve">
<g>
	<path fill="#F0F0F0" d="M473.3,147.7c-1.1-18.9-32.4-19.7-32.4-19.7s-27.1,26.9-33.2,26.4c-6.1-0.5,18.6-27.5,18.6-27.5
		c-11.3-3.6-43.7,4.4-43.7,4.4s-5.8,36.8-11.6,34.8c-5.8-2,6.8-32.4,6.8-32.4c-11.9,1-25,11.8-25,11.8c-17.5,18.4,7.1,40,7.1,40
		s-2.3,12.7-13.2,25.6c0,0,0,0,0,0s-2.3,2.3-5.1,6.5l3,0.6c0.4-0.8,0.9-1.5,1.3-2.2c0,0,0,0,0,0c0,0,0,0,0,0c0.3-0.4,0.7-1,1.3-1.8
		c0,0,0,0,0,0c0,0,0,0,0,0c1.3-1.6,2.2-2.8,2.8-3.7c0,0,0,0,0,0c4-5.1,9.6-11.7,12.6-12.7c0,0-0.2-0.5-0.4-1.5
		c0.1,0.5,0.2,1,0.4,1.5c2.9,12.3,28.5,19.6,43.6,19.7c15.1,0.1,9.7-5.3,3.3-13.6c-6.4-8.3-23.1-10-27.4-13.6
		c-4.3-3.6,3.3-4.7,12.8-1.9c9.5,2.8,12.3,13.5,27.6,18.3c15.3,4.8,33.4-22.1,33.4-22.1c-11.5,1.1-29.6-9-29.5-12.8
		s28.6,2.5,33.3,2.4C464.6,173.8,474.3,166.6,473.3,147.7z"/>
	<path fill="#F0F0F0" d="M370.9,105.2c0,0,18.8-67.6,60.5-103.3c5.5-4.7,14,0.1,12.7,7.3c0,0.1,0,0.2-0.1,0.4
		C441.6,21.8,394.1,67.5,370.9,105.2z"/>
	<path fill="#F0F0F0" d="M363.5,124.2c0,0,48.4-80.7,114.4-109.5c4-1.8,8.9-0.2,10.8,3.8c1.2,2.6,1.4,6.3-1.3,11.7
		C480.3,44.7,405.4,85.3,363.5,124.2z"/>
	<path fill="#F0F0F0" d="M355.9,465.6c0,0,73.5-36.9,86.8-24C456,454.4,355.9,465.6,355.9,465.6z"/>
	<path fill="#F0F0F0" d="M343.9,470c0,0,98.5-8.6,100,11.9C445.5,502.4,343.9,470,343.9,470z"/>
	<path fill="#F0F0F0" d="M4.6,36.4C17.1-2.3,82.8,13.2,82.8,13.2s41.6,70.9,54.6,73.2c13,2.3-23.7-67.5-23.7-67.5
		c25.5-1.2,88.5,33,88.5,33s-8,79.9,5.1,78.9c13.2-1,3.5-71.1,3.5-71.1c24.2,8.6,45.7,38.3,45.7,38.3c26.3,48-36.7,79.3-36.7,79.3
		s-2.2,27.8,13.4,60.5l0,0c0,0,3.6,6.1,7,16.3l-6.7-0.3c-0.5-1.8-1-3.6-1.6-5.3c0,0,0,0,0,0c0,0,0,0,0-0.1c-0.4-1.1-1-2.6-1.7-4.4
		c0,0,0,0,0,0c0,0,0,0,0,0c-1.8-4.1-3.1-7.1-3.8-9.3c0,0,0,0,0,0c-5.5-12.9-13.5-29.6-19.2-33.4c0,0,0.8-1,1.6-3c-0.5,1-1,2-1.6,3
		c-12.7,24-70.1,25.2-101.6,17.1c-31.6-8.1-17.2-16.4,0.7-30.2c17.9-13.8,53.7-8.1,64.6-13.3c10.9-5.2-4.3-11.7-25.7-11.1
		c-21.3,0.6-33,21.3-67.5,22.9C43,188.3,20,122.4,20,122.4c23.3,8.5,66.5-2.5,68.5-10.6s-61-10.4-70.6-13.3
		C8.2,95.6-8,75.1,4.6,36.4z"/>
	<path fill="#F0F0F0" d="M454.8,328.6c-6.3-23.1-45.2-15.9-45.2-15.9s-26.4,40.4-34.1,41.4c-7.7,1,15.9-38.9,15.9-38.9
		c-14.9-1.4-52.9,16.8-52.9,16.8s2.4,47.1-5.3,46.2c-7.7-1,0-41.8,0-41.8c-14.4,4.3-27.9,21.2-27.9,21.2
		c-16.8,27.4,19.2,47.6,19.2,47.6s0.5,16.3-9.6,35.1l0,0c0,0-2.3,3.5-4.6,9.3h3.9c0.3-1.1,0.7-2.1,1.1-3.1c0,0,0,0,0,0c0,0,0,0,0,0
		c0.3-0.6,0.7-1.5,1.1-2.5c0,0,0,0,0,0c0,0,0,0,0,0c1.2-2.4,2-4.1,2.5-5.3c0,0,0,0,0,0c3.6-7.4,8.8-17,12.2-19c0,0-0.4-0.6-0.8-1.8
		c0.3,0.6,0.5,1.2,0.8,1.8c6.7,14.4,40.4,16.8,59.1,13c18.8-3.8,10.6-9.1,0.5-17.7c-10.1-8.6-31.3-6.3-37.5-9.7
		c-6.3-3.4,2.9-6.7,15.4-5.8c12.5,1,18.8,13.5,38.9,15.4c20.2,1.9,35.6-36.1,35.6-36.1c-13.9,4.3-38.9-3.4-39.9-8.2
		c-1-4.8,36.1-4.3,41.8-5.8C450.9,363.2,461,351.7,454.8,328.6z"/>
	<path fill="#F0F0F0" d="M51.1,301.6c13.8-26.2,59-6.9,59-6.9s21,56.1,30.1,59.4c9.1,3.3-8.6-51.5-8.6-51.5
		c18.4,2.3,59.5,34.8,59.5,34.8s-15.7,56.4-6.2,57.3c9.6,0.9,11.4-50.6,11.4-50.6c16.3,9.2,28,33.2,28,33.2
		c12.9,37.8-36.2,52.4-36.2,52.4s-5,19.7,2.1,45.1l0,0c0,0,1.8,4.8,3,12.6l-4.8-1.1c-0.1-1.4-0.3-2.7-0.5-4c0,0,0,0,0,0
		c0,0,0,0,0-0.1c-0.2-0.8-0.4-2-0.7-3.4c0,0,0,0,0,0c0,0,0,0,0,0c-0.8-3.2-1.3-5.5-1.6-7.2c0,0,0,0,0,0c-2.3-9.9-6-23-9.6-26.4
		c0,0,0.7-0.6,1.5-2c-0.5,0.6-1,1.3-1.5,2c-12.1,15.6-53.5,9.4-75.1-0.4c-21.7-9.8-10.3-13.9,4.2-21.6c14.6-7.6,39.6,0.9,48-1.5
		c8.5-2.4-1.7-8.9-17.1-11.2c-15.4-2.2-26.4,11.2-51.3,8c-25-3.2-33.3-53.3-33.3-53.3c15.7,9,48.1,6.5,50.5,1
		c2.5-5.6-42.5-15.1-49.1-18.4C46.4,344.5,37.3,327.8,51.1,301.6z"/>
	<path fill="#F0F0F0" d="M38.5,515.7c-7.3-15.9,17.9-30.1,17.9-30.1s33.8,10.2,38.5,7.2c4.8-3.1-27.2-14.4-27.2-14.4
		c7.7-7.8,37.6-15.4,37.6-15.4s20.8,27.6,24.6,23.4c3.9-4.1-19.6-23.5-19.6-23.5c10.1-4.3,25.6-1.2,25.6-1.2
		c22.3,7.5,11.5,35.7,11.5,35.7s7.4,9.4,21.9,15.2h0c0,0,2.9,0.9,7,3.1l-2.2,1.8c-0.7-0.4-1.4-0.8-2-1.2c0,0,0,0,0,0c0,0,0,0,0,0
		c-0.4-0.2-1.1-0.5-1.8-0.9c0,0,0,0,0,0c0,0,0,0,0,0c-1.8-0.8-3-1.3-3.9-1.8c0,0,0,0,0,0c-5.5-2.5-12.9-5.4-15.8-4.9
		c0,0,0-0.5-0.4-1.4c0.1,0.4,0.2,0.9,0.4,1.4c3,11.2-14.8,28.4-27.1,35c-12.3,6.6-10.2-0.2-8.6-9.7c1.6-9.6,14.6-18.2,16.5-23
		c1.9-4.8-4.8-2.4-11.3,4c-6.6,6.4-4.2,16.3-14.6,26.9c-10.4,10.6-36.9-3.5-36.9-3.5c9.9-4.1,20.3-20.2,18.5-23.3
		c-1.7-3.1-22.3,14.5-26.2,16.4C56.9,533.3,45.8,531.6,38.5,515.7z"/>
	<g>
		<g>
			<path fill="#304095" d="M422.1,578.3l-86,2.7c-23.8-1.4-51.1-0.9-80.2-0.1c-29.2,0.8-56.8,2.1-80.8,4.9l-88.2,2.6v17.9h0
				c0,0,0,0,0,0.1c0,11.4,76.2,18.3,169.4,15.5c92.3-2.9,166.4-14.9,166.2-26.1c0,0,0-0.7,0-0.7L422.1,578.3z"/>
			<path fill="#263238" d="M422.1,578.5c0.2,11.2-73.8,22.6-166.1,25.3c-93.1,2.8-169.3-4.2-169.3-15.6c0-11.4,76-22.8,169-25.4
				C347.8,560.2,421.9,567.3,422.1,578.5z"/>
		</g>
		<path fill="#C8CEF3" d="M313.7,314l-42.6,33.5l43.5,32.4c48.6,36.1,77.5,93.2,78.3,154.8l0.6,42.2c0,0.8-0.7,1.5-1.9,2.3
			l-131.4-3.1l-8.9,0.3L118,587.1c-1.2-0.7-1.6-1.4-1.6-2.2l-0.1-42.8c-0.1-62.5,28.6-121.6,77.4-160l43.1-33.9l-43.5-32.5
			c-48.9-36.3-77.4-93.4-77.5-154l-0.1-43.5l132.5,5.6l8.7,0l130.1-7l0.6,42.9C388.4,219.6,361.2,276.6,313.7,314z"/>
		<path fill="#BFC8D6" d="M393.4,576.9c0,0.8-0.6,1.6-1.8,2.4c-10.6,7-67.2,13.8-135.9,15.8c-69.2,2.1-127-1.4-138-7.9
			c-1.2-0.7-1.9-1.5-1.9-2.3c0-7.9,62.8-16.1,139.7-18.2C331.7,564.5,393.3,569.1,393.4,576.9z"/>
		<linearGradient id="SVGID_1_" gradientUnits="userSpaceOnUse" x1="255.5453" y1="265.8928" x2="248.2805" y2="859.8112">
			<stop  offset="0" style="stop-color:#FFC444"/>
			<stop  offset="0.9964" style="stop-color:#F36F56"/>
		</linearGradient>
		<polygon fill="url(#SVGID_1_)" points="258,449.8 250.9,449.9 250,335.1 257.1,335 		"/>
		<linearGradient id="SVGID_2_" gradientUnits="userSpaceOnUse" x1="253.6412" y1="219.2689" x2="248.7794" y2="616.7374">
			<stop  offset="0" style="stop-color:#FFC444"/>
			<stop  offset="0.9964" style="stop-color:#F36F56"/>
		</linearGradient>
		<path fill="url(#SVGID_2_)" d="M253.4,267.5l-81.8,1.1l4.3,7.1c0,0,30.4,43.5,78.1,66.8c47.1-24.8,76.4-68.8,76.4-68.8l4.1-7.1
			L253.4,267.5z"/>
		<linearGradient id="SVGID_3_" gradientUnits="userSpaceOnUse" x1="278.3428" y1="-26.4065" x2="237.4058" y2="446.929">
			<stop  offset="0" style="stop-color:#FFC444"/>
			<stop  offset="0.9964" style="stop-color:#F36F56"/>
		</linearGradient>
		<path fill="url(#SVGID_3_)" d="M334.4,265.1c0.1,4.3-36.1,8.2-81,8.8c-45.1,0.6-81.8-2.4-81.8-6.7c0-4.3,36.6-8.3,81.7-8.8
			C298.2,257.8,334.4,260.8,334.4,265.1z"/>
		<linearGradient id="SVGID_4_" gradientUnits="userSpaceOnUse" x1="254.2413" y1="440.5152" x2="254.2401" y2="440.6207">
			<stop  offset="0" style="stop-color:#FFC444"/>
			<stop  offset="0.9964" style="stop-color:#F36F56"/>
		</linearGradient>
		<path fill="url(#SVGID_4_)" d="M254.2,440.5C254.2,440.5,254.2,440.5,254.2,440.5C254.2,440.5,254.3,440.5,254.2,440.5z"/>
		<linearGradient id="SVGID_5_" gradientUnits="userSpaceOnUse" x1="257.5967" y1="350.8118" x2="248.1476" y2="1123.3112">
			<stop  offset="0" style="stop-color:#FFC444"/>
			<stop  offset="0.9964" style="stop-color:#F36F56"/>
		</linearGradient>
		<path fill="url(#SVGID_5_)" d="M369,577.5c-40.4,9-103.4,11.8-112.6,12.1c0,0-0.6,0-1,0c-0.4,0-1,0-1,0c-4.9,0.1-25,0.5-49.1-0.2
			c-21.2-0.7-45.4-2.1-64.8-5.3c0,0,0.1-0.1,0.1-0.2c0,0,0,0,0,0c0-0.3,0-2.1,0-5c0,0,0,0,0,0c0.9-15,3.1-58.2,10.6-67.5
			c9-11.1,100-68.9,103.1-70.9c3.1,1.9,94.1,55.1,103,65.7c2.4,2.8,4.3,9.2,5.9,16.9c1.8,8.7,3.1,19.4,4,28.9
			C368.5,565.9,369,577.5,369,577.5z"/>
		<g>
			<path fill="#FFFFFF" d="M175.8,182.2c-1-27,1.4-46.5,1.4-46.5s-7.3-17-33.1-9.2c-6.7,19.9-9.4,39-9,56L175.8,182.2z"/>
			<path fill="#FFFFFF" d="M176.4,194.2l-40.7,0.4c9.1,89.5,96.5,140.8,96.5,140.8L253,335C195.7,312.7,179.9,244.3,176.4,194.2z"/>
		</g>
		<g>
			<path fill="#FFFFFF" d="M179,571.1l-36.8,1c-4.8-16.5-6.7-33-6.4-47.5l41.4-1.1C176.5,550.5,178.9,570.1,179,571.1z"/>
			<path fill="#FFFFFF" d="M177.8,511.2l-41.3,1c8.7-92.8,96-147.5,96-147.5l20.8-0.4C196.1,389.8,180.9,459.7,177.8,511.2z"/>
		</g>
		<g>
			<path fill="#304095" d="M414.9,117l-84.2,0.5c-23.3-1.9-50-2.1-78.5-2c-28.6,0.1-55.6,0.7-79.1,2.8l-86.3,0.5v16.4h0
				c0,0,0,0.3,0,0.3c0,11,74.6,19.4,165.7,18.8c90.3-0.6,162.8-9.9,162.7-20.7c0,0,0-0.1,0-0.1L414.9,117z"/>
			<path fill="#263238" d="M414.9,116.8c0.2,10.8-72.3,19.9-162.5,20.5c-91.1,0.6-165.6-7.8-165.6-18.8c0-10.9,74.4-20.1,165.3-20.5
				C342.2,97.7,414.7,106.1,414.9,116.8z"/>
		</g>
		<linearGradient id="SVGID_6_" gradientUnits="userSpaceOnUse" x1="256.0054" y1="480.7647" x2="251.6859" y2="833.9034">
			<stop  offset="0" style="stop-color:#FFC444"/>
			<stop  offset="0.3651" style="stop-color:#F36F56"/>
		</linearGradient>
		<path fill="url(#SVGID_6_)" d="M369,577.5c-40.4,9-103.4,11.8-112.6,12.1c0,0-0.6,0-1,0c-0.4,0-1,0-1,0c-4.9,0.1-25,0.5-49.1-0.2
			c-21.2-0.7-45.4-2.1-64.8-5.3c0,0,0.1-0.1,0.1-0.2c0,0,0,0,0,0c0-0.3-0.1-2.1,0-5c22.8,0,70.1-1.6,90.7-15
			c27.4-17.8,50.2-18.9,80.2-14.1c24.6,4,42.4-9.8,51.8-26.8c1.8,8.7,3.1,19.4,4,28.9C368.5,565.9,369,577.5,369,577.5z"/>
	</g>
</g>
</svg>
