<?xml version="1.0" encoding="utf-8"?>
<!-- Generator: Adobe Illustrator 25.0.0, SVG Export Plug-In . SVG Version: 6.00 Build 0)  -->
<svg version="1.2" baseProfile="tiny" id="Layer_1" xmlns="http://www.w3.org/2000/svg" xmlns:xlink="http://www.w3.org/1999/xlink"
	 x="0px" y="0px" viewBox="0 0 769 822.1" overflow="visible" xml:space="preserve">
<g>
	<circle fill="#171D2D" cx="384.5" cy="437.6" r="384.5"/>
	<path fill="#465CD6" d="M658.6,87.8c45.8,32.7,52.4,98.3,14.1,139.5L558.4,350.1c-41.9,41.9-102,80.9-174,80.9
		c-71.9,0-127.3-34.3-174-80.9L96.2,227.2C57.9,186,64.5,120.4,110.3,87.7C187.6,32.5,282.2,0,384.4,0
		C486.7,0.1,581.3,32.6,658.6,87.8z"/>
	<path fill="#FFFFFF" d="M224.9,336.5l-117-124.7c0,0-16.2-15.7-16.2-51.7s25.7-54.2,32.9-61c7.2-6.7,110.4-86,263-86
		S639.9,95,649.3,102.7s29.4,34.3,27.4,60.7s-6.8,38.4-22.9,56.2S544.6,336.1,544.6,336.1s-55.3-83.6-160.1-83.6
		S224.9,336.5,224.9,336.5z"/>
	<path fill="#FF652F" d="M384.5,252.5c8.1,0,16,0.5,23.8,1.4c-0.1-0.2-0.2-0.5-0.4-0.7l-18.1-31.3c-2.4-4.1-8.3-4.1-10.7,0
		L361,253.2c-0.1,0.2-0.3,0.5-0.4,0.7C368.5,253,376.4,252.5,384.5,252.5z"/>
</g>
</svg>
